<svg width="327" height="49" viewBox="0 0 327 49" fill="none" xmlns="http://www.w3.org/2000/svg">
<path d="M141.72 39.48C138.867 39.48 136.28 38.8667 133.96 37.64C131.667 36.3867 129.853 34.6667 128.52 32.48C127.213 30.2667 126.56 27.7733 126.56 25C126.56 22.2267 127.213 19.7467 128.52 17.56C129.853 15.3467 131.667 13.6267 133.96 12.4C136.28 11.1467 138.88 10.52 141.76 10.52C144.187 10.52 146.373 10.9467 148.32 11.8C150.293 12.6533 151.947 13.88 153.28 15.48L149.12 19.32C147.227 17.1333 144.88 16.04 142.08 16.04C140.347 16.04 138.8 16.4267 137.44 17.2C136.08 17.9467 135.013 19 134.24 20.36C133.493 21.72 133.12 23.2667 133.12 25C133.12 26.7333 133.493 28.28 134.24 29.64C135.013 31 136.08 32.0667 137.44 32.84C138.8 33.5867 140.347 33.96 142.08 33.96C144.88 33.96 147.227 32.8533 149.12 30.64L153.28 34.48C151.947 36.1067 150.293 37.3467 148.32 38.2C146.347 39.0533 144.147 39.48 141.72 39.48ZM167.176 20.32C167.923 19.28 168.923 18.4933 170.176 17.96C171.456 17.4267 172.923 17.16 174.576 17.16V22.92C173.883 22.8667 173.416 22.84 173.176 22.84C171.389 22.84 169.989 23.3467 168.976 24.36C167.963 25.3467 167.456 26.84 167.456 28.84V39H161.216V17.48H167.176V20.32ZM203.171 28.32C203.171 28.4 203.131 28.96 203.051 30H186.771C187.064 31.3333 187.758 32.3867 188.851 33.16C189.944 33.9333 191.304 34.32 192.931 34.32C194.051 34.32 195.038 34.16 195.891 33.84C196.771 33.4933 197.584 32.96 198.331 32.24L201.651 35.84C199.624 38.16 196.664 39.32 192.771 39.32C190.344 39.32 188.198 38.8533 186.331 37.92C184.464 36.96 183.024 35.64 182.011 33.96C180.998 32.28 180.491 30.3733 180.491 28.24C180.491 26.1333 180.984 24.24 181.971 22.56C182.984 20.8533 184.358 19.5333 186.091 18.6C187.851 17.64 189.811 17.16 191.971 17.16C194.078 17.16 195.984 17.6133 197.691 18.52C199.398 19.4267 200.731 20.7333 201.691 22.44C202.678 24.12 203.171 26.08 203.171 28.32ZM192.011 21.88C190.598 21.88 189.411 22.28 188.451 23.08C187.491 23.88 186.904 24.9733 186.691 26.36H197.291C197.078 25 196.491 23.92 195.531 23.12C194.571 22.2933 193.398 21.88 192.011 21.88ZM219.419 17.16C222.753 17.16 225.313 17.96 227.099 19.56C228.886 21.1333 229.779 23.52 229.779 26.72V39H223.939V36.32C222.766 38.32 220.579 39.32 217.379 39.32C215.726 39.32 214.286 39.04 213.059 38.48C211.859 37.92 210.939 37.1467 210.299 36.16C209.659 35.1733 209.339 34.0533 209.339 32.8C209.339 30.8 210.086 29.2267 211.579 28.08C213.099 26.9333 215.433 26.36 218.579 26.36H223.539C223.539 25 223.126 23.96 222.299 23.24C221.473 22.4933 220.233 22.12 218.579 22.12C217.433 22.12 216.299 22.3067 215.179 22.68C214.086 23.0267 213.153 23.5067 212.379 24.12L210.139 19.76C211.313 18.9333 212.713 18.2933 214.339 17.84C215.993 17.3867 217.686 17.16 219.419 17.16ZM218.939 35.12C220.006 35.12 220.953 34.88 221.779 34.4C222.606 33.8933 223.193 33.16 223.539 32.2V30H219.259C216.699 30 215.419 30.84 215.419 32.52C215.419 33.32 215.726 33.96 216.339 34.44C216.979 34.8933 217.846 35.12 218.939 35.12ZM253.307 37.96C252.694 38.4133 251.934 38.76 251.027 39C250.147 39.2133 249.214 39.32 248.227 39.32C245.667 39.32 243.68 38.6667 242.267 37.36C240.88 36.0533 240.187 34.1333 240.187 31.6V22.76H236.867V17.96H240.187V12.72H246.427V17.96H251.787V22.76H246.427V31.52C246.427 32.4267 246.654 33.1333 247.107 33.64C247.587 34.12 248.254 34.36 249.107 34.36C250.094 34.36 250.934 34.0933 251.627 33.56L253.307 37.96ZM260.81 17.48H267.05V39H260.81V17.48ZM263.93 14.48C262.783 14.48 261.85 14.1467 261.13 13.48C260.41 12.8133 260.05 11.9867 260.05 11C260.05 10.0133 260.41 9.18667 261.13 8.52C261.85 7.85333 262.783 7.52 263.93 7.52C265.076 7.52 266.01 7.84 266.73 8.48C267.45 9.12 267.81 9.92 267.81 10.88C267.81 11.92 267.45 12.7867 266.73 13.48C266.01 14.1467 265.076 14.48 263.93 14.48ZM298.201 17.48L289.121 39H282.681L273.641 17.48H280.081L286.041 32.12L292.201 17.48H298.201ZM325.241 28.32C325.241 28.4 325.201 28.96 325.121 30H308.841C309.135 31.3333 309.828 32.3867 310.921 33.16C312.015 33.9333 313.375 34.32 315.001 34.32C316.121 34.32 317.108 34.16 317.961 33.84C318.841 33.4933 319.655 32.96 320.401 32.24L323.721 35.84C321.695 38.16 318.735 39.32 314.841 39.32C312.415 39.32 310.268 38.8533 308.401 37.92C306.535 36.96 305.095 35.64 304.081 33.96C303.068 32.28 302.561 30.3733 302.561 28.24C302.561 26.1333 303.055 24.24 304.041 22.56C305.055 20.8533 306.428 19.5333 308.161 18.6C309.921 17.64 311.881 17.16 314.041 17.16C316.148 17.16 318.055 17.6133 319.761 18.52C321.468 19.4267 322.801 20.7333 323.761 22.44C324.748 24.12 325.241 26.08 325.241 28.32ZM314.081 21.88C312.668 21.88 311.481 22.28 310.521 23.08C309.561 23.88 308.975 24.9733 308.761 26.36H319.361C319.148 25 318.561 23.92 317.601 23.12C316.641 22.2933 315.468 21.88 314.081 21.88Z" fill="black"/>
<g clip-path="url(#clip0_373_2382)">
<path d="M118.917 16.8531C107.643 25.3109 78.3631 35.6493 60.2661 35.6493C52.4457 35.6493 46.4122 34.4592 42.5329 32.1777C47.7313 28.1047 50.1974 21.9029 49.9049 17.2222C49.7068 14.0624 48.235 11.7141 45.8664 10.7881C44.9 10.399 43.8515 10.2458 42.8112 10.3417C41.7709 10.4376 40.77 10.7797 39.8947 11.3386C36.7659 13.2256 34.4721 17.5245 34.0465 22.2911C33.7216 25.9568 34.641 29.123 36.7757 31.71C32.279 33.8483 26.8174 35.1211 20.4851 35.5125C21.021 34.8684 21.4719 34.1606 21.8269 33.406C22.5821 31.8698 22.9699 30.1852 22.9608 28.4802C22.9608 24.2608 20.8132 21.6261 16.518 20.576C20.0595 18.6838 21.8291 15.9335 21.8269 12.325C21.8848 10.1115 21.1219 7.95235 19.6793 6.24736C18.8217 5.2096 17.6868 4.4253 16.4011 3.98176C15.0776 3.53203 13.3546 3.30823 11.2319 3.31035H4.48365L0 39H16.1444C25.4366 39 33.2602 37.374 39.4074 34.1665C43.8293 37.3772 50.8277 39 60.2661 39C79.523 39 109.239 28.3434 121 19.5196L118.917 16.8531ZM9.25321 8.23295H11.1149C14.639 8.23295 16.4021 9.68183 16.4043 12.5796C16.4043 16.8011 14.091 18.9118 9.46439 18.9118H7.93085L9.25321 8.23295ZM7.38827 23.1408H10.6373C11.6949 23.126 12.7512 23.2199 13.7888 23.4208C14.5563 23.5607 15.2842 23.8601 15.9234 24.299C16.4685 24.6887 16.8898 25.2215 17.1386 25.8359C17.4158 26.5552 17.5482 27.3202 17.5285 28.0888C17.5285 30.4223 16.7574 32.0865 15.2152 33.0814C14.208 33.7433 12.3517 34.0742 9.64634 34.0742H6.01719L7.38827 23.1408ZM39.7875 29.998C37.9843 28.0315 37.1883 25.5432 37.4645 22.5807C37.7894 18.95 39.5211 15.5039 41.6882 14.1961C42.2056 13.8644 42.8081 13.6825 43.4264 13.671C43.8269 13.6738 44.223 13.7527 44.5928 13.9033C46.0841 14.4856 46.4187 16.363 46.4837 17.429C46.7404 21.2665 44.4661 26.6855 39.7875 29.998Z" fill="black"/>
</g>
<defs>
<clipPath id="clip0_373_2382">
<rect width="121" height="36" fill="white" transform="translate(0 3)"/>
</clipPath>
</defs>
</svg>
