<svg width="666" height="139" viewBox="0 0 666 139" fill="none" xmlns="http://www.w3.org/2000/svg">
<path d="M14.4701 125L1.64606 85.8H11.0541L22.1981 120.52H17.4941L29.1421 85.8H37.5421L48.7421 120.52H44.2061L55.6301 85.8H64.3101L51.4861 125H41.7421L31.8301 94.536H34.4061L24.2141 125H14.4701ZM93.4909 94.424C95.8802 94.424 98.0082 94.9093 99.8749 95.88C101.779 96.8133 103.272 98.2693 104.355 100.248C105.438 102.189 105.979 104.691 105.979 107.752V125H97.2429V109.096C97.2429 106.669 96.7015 104.877 95.6189 103.72C94.5735 102.563 93.0802 101.984 91.1389 101.984C89.7575 101.984 88.5069 102.283 87.3869 102.88C86.3042 103.44 85.4455 104.317 84.8109 105.512C84.2135 106.707 83.9149 108.237 83.9149 110.104V125H75.1789V83.448H83.9149V103.216L81.9549 100.696C83.0375 98.68 84.5869 97.1307 86.6029 96.048C88.6189 94.9653 90.9149 94.424 93.4909 94.424ZM137.978 125V119.12L137.418 117.832V107.304C137.418 105.437 136.839 103.981 135.682 102.936C134.562 101.891 132.826 101.368 130.474 101.368C128.868 101.368 127.282 101.629 125.714 102.152C124.183 102.637 122.876 103.309 121.794 104.168L118.658 98.064C120.3 96.9067 122.279 96.0107 124.594 95.376C126.908 94.7413 129.26 94.424 131.65 94.424C136.242 94.424 139.807 95.5067 142.346 97.672C144.884 99.8373 146.154 103.216 146.154 107.808V125H137.978ZM128.794 125.448C126.442 125.448 124.426 125.056 122.746 124.272C121.066 123.451 119.778 122.349 118.882 120.968C117.986 119.587 117.538 118.037 117.538 116.32C117.538 114.528 117.967 112.96 118.826 111.616C119.722 110.272 121.122 109.227 123.026 108.48C124.93 107.696 127.412 107.304 130.474 107.304H138.482V112.4H131.426C129.372 112.4 127.954 112.736 127.17 113.408C126.423 114.08 126.05 114.92 126.05 115.928C126.05 117.048 126.479 117.944 127.338 118.616C128.234 119.251 129.447 119.568 130.978 119.568C132.434 119.568 133.74 119.232 134.898 118.56C136.055 117.851 136.895 116.824 137.418 115.48L138.762 119.512C138.127 121.453 136.97 122.928 135.29 123.936C133.61 124.944 131.444 125.448 128.794 125.448ZM171.98 125.448C168.433 125.448 165.671 124.552 163.692 122.76C161.713 120.931 160.724 118.224 160.724 114.64V88.208H169.46V114.528C169.46 115.797 169.796 116.787 170.468 117.496C171.14 118.168 172.055 118.504 173.212 118.504C174.593 118.504 175.769 118.131 176.74 117.384L179.092 123.544C178.196 124.179 177.113 124.664 175.844 125C174.612 125.299 173.324 125.448 171.98 125.448ZM156.076 102.264V95.544H176.964V102.264H156.076ZM188.084 102.04L191.78 88.6L193.012 93.696C191.407 93.696 190.081 93.2293 189.036 92.296C188.028 91.3253 187.524 90.0187 187.524 88.376C187.524 86.7707 188.047 85.4827 189.092 84.512C190.137 83.504 191.425 83 192.956 83C194.524 83 195.812 83.504 196.82 84.512C197.828 85.4827 198.332 86.7707 198.332 88.376C198.332 88.8613 198.295 89.3467 198.22 89.832C198.183 90.28 198.052 90.8213 197.828 91.456C197.641 92.0907 197.324 92.9307 196.876 93.976L193.628 102.04H188.084ZM219.004 125.448C216.428 125.448 213.945 125.149 211.556 124.552C209.204 123.917 207.337 123.133 205.956 122.2L208.868 115.928C210.249 116.787 211.873 117.496 213.74 118.056C215.644 118.579 217.511 118.84 219.34 118.84C221.356 118.84 222.775 118.597 223.596 118.112C224.455 117.627 224.884 116.955 224.884 116.096C224.884 115.387 224.548 114.864 223.876 114.528C223.241 114.155 222.383 113.875 221.3 113.688C220.217 113.501 219.023 113.315 217.716 113.128C216.447 112.941 215.159 112.699 213.852 112.4C212.545 112.064 211.351 111.579 210.268 110.944C209.185 110.309 208.308 109.451 207.636 108.368C207.001 107.285 206.684 105.885 206.684 104.168C206.684 102.264 207.225 100.584 208.308 99.128C209.428 97.672 211.033 96.5333 213.124 95.712C215.215 94.8533 217.716 94.424 220.628 94.424C222.681 94.424 224.772 94.648 226.9 95.096C229.028 95.544 230.801 96.1973 232.22 97.056L229.308 103.272C227.852 102.413 226.377 101.835 224.884 101.536C223.428 101.2 222.009 101.032 220.628 101.032C218.687 101.032 217.268 101.293 216.372 101.816C215.476 102.339 215.028 103.011 215.028 103.832C215.028 104.579 215.345 105.139 215.98 105.512C216.652 105.885 217.529 106.184 218.612 106.408C219.695 106.632 220.871 106.837 222.14 107.024C223.447 107.173 224.753 107.416 226.06 107.752C227.367 108.088 228.543 108.573 229.588 109.208C230.671 109.805 231.548 110.645 232.22 111.728C232.892 112.773 233.228 114.155 233.228 115.872C233.228 117.739 232.668 119.4 231.548 120.856C230.428 122.275 228.804 123.395 226.676 124.216C224.585 125.037 222.028 125.448 219.004 125.448Z" fill="white"/>
<path d="M633.744 110.608H640.968C640.128 102.824 652.336 101.872 652.336 93.64C652.336 86.192 646.4 82.44 638.28 82.44C632.288 82.44 627.36 85.128 623.832 89.272L628.424 93.528C631.168 90.616 633.912 89.104 637.384 89.104C641.752 89.104 644.44 91.008 644.44 94.368C644.44 99.8 632.568 101.816 633.744 110.608ZM637.384 125.504C640.24 125.504 642.312 123.488 642.312 120.576C642.312 117.608 640.24 115.592 637.384 115.592C634.584 115.592 632.456 117.608 632.456 120.576C632.456 123.488 634.528 125.504 637.384 125.504Z" fill="white"/>
<path d="M243.242 23.2344V19.1602C243.242 17.9753 243.47 16.7539 243.926 15.4961C244.382 14.2383 244.983 13.0534 245.73 11.9414C246.478 10.8112 247.298 9.85417 248.191 9.07031L251.855 11.2031C251.199 12.2969 250.634 13.4727 250.16 14.7305C249.686 15.9883 249.449 17.4648 249.449 19.1602V23.2344H243.242ZM252.539 23.2344V19.1602C252.539 17.9753 252.767 16.7539 253.223 15.4961C253.678 14.2383 254.28 13.0534 255.027 11.9414C255.775 10.8112 256.595 9.85417 257.488 9.07031L261.152 11.2031C260.496 12.2969 259.931 13.4727 259.457 14.7305C258.983 15.9883 258.746 17.4648 258.746 19.1602V23.2344H252.539Z" fill="white"/>
<path d="M601.707 10V14.1562C601.707 15.3411 601.479 16.5625 601.023 17.8203C600.586 19.0781 599.993 20.2721 599.246 21.4023C598.499 22.5143 597.678 23.4622 596.785 24.2461L593.094 22.1133C593.768 21.0378 594.342 19.8711 594.816 18.6133C595.29 17.3372 595.527 15.8607 595.527 14.1836V10H601.707ZM611.141 10V14.1562C611.141 15.3411 610.913 16.5625 610.457 17.8203C610.02 19.0781 609.427 20.2721 608.68 21.4023C607.932 22.5143 607.112 23.4622 606.219 24.2461L602.527 22.1133C603.202 21.0378 603.776 19.8711 604.25 18.6133C604.724 17.3372 604.961 15.8607 604.961 14.1836V10H611.141Z" fill="white"/>
<g clip-path="url(#clip0_235_1600)">
<path d="M579.458 61.3263C549.456 84.1155 471.537 111.972 423.377 111.972C402.566 111.972 386.51 108.765 376.187 102.618C390.021 91.6433 396.583 74.9329 395.805 62.3209C395.277 53.8071 391.361 47.4796 385.058 44.9847C382.486 43.9362 379.696 43.5233 376.927 43.7817C374.159 44.0401 371.495 44.962 369.166 46.4679C360.84 51.5522 354.736 63.1354 353.603 75.9789C352.738 85.856 355.185 94.3869 360.866 101.357C348.9 107.119 334.365 110.549 317.514 111.603C318.94 109.868 320.14 107.961 321.085 105.927C323.095 101.788 324.127 97.249 324.102 92.655C324.102 81.2861 318.387 74.187 306.957 71.3577C316.381 66.2591 321.091 58.8485 321.085 49.1258C321.239 43.1615 319.209 37.3439 315.37 32.7498C313.087 29.9537 310.067 27.8404 306.646 26.6453C303.124 25.4335 298.539 24.8305 292.89 24.8362H274.932L263 121H305.963C330.691 121 351.511 116.619 367.869 107.976C379.637 116.627 398.26 121 423.377 121C474.623 121 553.701 92.2863 585 68.5112L579.458 61.3263ZM287.624 38.0999H292.578C301.957 38.0999 306.649 42.0038 306.654 49.8117C306.654 61.1863 300.498 66.8736 288.186 66.8736H284.105L287.624 38.0999ZM282.661 78.2682H291.308C294.122 78.2285 296.933 78.4813 299.694 79.0227C301.737 79.3996 303.674 80.2065 305.375 81.389C306.825 82.439 307.946 83.8747 308.608 85.5302C309.346 87.4682 309.698 89.5295 309.646 91.6004C309.646 97.8879 307.594 102.372 303.49 105.053C300.81 106.836 295.87 107.728 288.67 107.728H279.013L282.661 78.2682ZM368.881 96.7447C364.082 91.4461 361.964 84.7414 362.699 76.7592C363.563 66.9765 368.172 57.691 373.939 54.1672C375.316 53.2737 376.919 52.7833 378.564 52.7525C379.63 52.7599 380.684 52.9725 381.668 53.3784C385.637 54.9474 386.528 60.0059 386.701 62.8782C387.384 73.2182 381.331 87.8194 368.881 96.7447Z" fill="white"/>
</g>
<defs>
<clipPath id="clip0_235_1600">
<rect width="322" height="97" fill="white" transform="translate(263 24)"/>
</clipPath>
</defs>
</svg>
