<svg width="252" height="49" viewBox="0 0 252 49" fill="none" xmlns="http://www.w3.org/2000/svg">
<path d="M141.88 39.48C138.973 39.48 136.347 38.8533 134 37.6C131.68 36.3467 129.853 34.6267 128.52 32.44C127.213 30.2267 126.56 27.7467 126.56 25C126.56 22.2533 127.213 19.7867 128.52 17.6C129.853 15.3867 131.68 13.6533 134 12.4C136.347 11.1467 138.973 10.52 141.88 10.52C144.787 10.52 147.4 11.1467 149.72 12.4C152.04 13.6533 153.867 15.3867 155.2 17.6C156.533 19.7867 157.2 22.2533 157.2 25C157.2 27.7467 156.533 30.2267 155.2 32.44C153.867 34.6267 152.04 36.3467 149.72 37.6C147.4 38.8533 144.787 39.48 141.88 39.48ZM141.88 33.96C143.533 33.96 145.027 33.5867 146.36 32.84C147.693 32.0667 148.733 31 149.48 29.64C150.253 28.28 150.64 26.7333 150.64 25C150.64 23.2667 150.253 21.72 149.48 20.36C148.733 19 147.693 17.9467 146.36 17.2C145.027 16.4267 143.533 16.04 141.88 16.04C140.227 16.04 138.733 16.4267 137.4 17.2C136.067 17.9467 135.013 19 134.24 20.36C133.493 21.72 133.12 23.2667 133.12 25C133.12 26.7333 133.493 28.28 134.24 29.64C135.013 31 136.067 32.0667 137.4 32.84C138.733 33.5867 140.227 33.96 141.88 33.96ZM178.35 17.16C180.35 17.16 182.163 17.6267 183.79 18.56C185.443 19.4667 186.737 20.76 187.67 22.44C188.603 24.0933 189.07 26.0267 189.07 28.24C189.07 30.4533 188.603 32.4 187.67 34.08C186.737 35.7333 185.443 37.0267 183.79 37.96C182.163 38.8667 180.35 39.32 178.35 39.32C175.603 39.32 173.443 38.4533 171.87 36.72V46.76H165.63V17.48H171.59V19.96C173.137 18.0933 175.39 17.16 178.35 17.16ZM177.27 34.2C178.87 34.2 180.177 33.6667 181.19 32.6C182.23 31.5067 182.75 30.0533 182.75 28.24C182.75 26.4267 182.23 24.9867 181.19 23.92C180.177 22.8267 178.87 22.28 177.27 22.28C175.67 22.28 174.35 22.8267 173.31 23.92C172.297 24.9867 171.79 26.4267 171.79 28.24C171.79 30.0533 172.297 31.5067 173.31 32.6C174.35 33.6667 175.67 34.2 177.27 34.2ZM218.327 28.32C218.327 28.4 218.287 28.96 218.207 30H201.927C202.221 31.3333 202.914 32.3867 204.007 33.16C205.101 33.9333 206.461 34.32 208.087 34.32C209.207 34.32 210.194 34.16 211.047 33.84C211.927 33.4933 212.741 32.96 213.487 32.24L216.807 35.84C214.781 38.16 211.821 39.32 207.927 39.32C205.501 39.32 203.354 38.8533 201.487 37.92C199.621 36.96 198.181 35.64 197.167 33.96C196.154 32.28 195.647 30.3733 195.647 28.24C195.647 26.1333 196.141 24.24 197.127 22.56C198.141 20.8533 199.514 19.5333 201.247 18.6C203.007 17.64 204.967 17.16 207.127 17.16C209.234 17.16 211.141 17.6133 212.847 18.52C214.554 19.4267 215.887 20.7333 216.847 22.44C217.834 24.12 218.327 26.08 218.327 28.32ZM207.167 21.88C205.754 21.88 204.567 22.28 203.607 23.08C202.647 23.88 202.061 24.9733 201.847 26.36H212.447C212.234 25 211.647 23.92 210.687 23.12C209.727 22.2933 208.554 21.88 207.167 21.88ZM239.562 17.16C242.228 17.16 244.375 17.96 246.002 19.56C247.655 21.16 248.482 23.5333 248.482 26.68V39H242.242V27.64C242.242 25.9333 241.868 24.6667 241.122 23.84C240.375 22.9867 239.295 22.56 237.882 22.56C236.308 22.56 235.055 23.0533 234.122 24.04C233.188 25 232.722 26.44 232.722 28.36V39H226.482V17.48H232.442V20C233.268 19.0933 234.295 18.4 235.522 17.92C236.748 17.4133 238.095 17.16 239.562 17.16Z" fill="black"/>
<g clip-path="url(#clip0_373_2377)">
<path d="M118.917 16.8531C107.643 25.3109 78.3631 35.6493 60.2661 35.6493C52.4457 35.6493 46.4122 34.4592 42.5329 32.1777C47.7313 28.1047 50.1974 21.9029 49.9049 17.2222C49.7068 14.0624 48.235 11.7141 45.8664 10.7881C44.9 10.399 43.8515 10.2458 42.8112 10.3417C41.7709 10.4376 40.77 10.7797 39.8947 11.3386C36.7659 13.2256 34.4721 17.5245 34.0465 22.2911C33.7216 25.9568 34.641 29.123 36.7757 31.71C32.279 33.8483 26.8174 35.1211 20.4851 35.5125C21.021 34.8684 21.4719 34.1606 21.8269 33.406C22.5821 31.8698 22.9699 30.1852 22.9608 28.4802C22.9608 24.2608 20.8132 21.6261 16.518 20.576C20.0595 18.6838 21.8291 15.9335 21.8269 12.325C21.8848 10.1115 21.1219 7.95235 19.6793 6.24736C18.8217 5.2096 17.6868 4.4253 16.4011 3.98176C15.0776 3.53203 13.3546 3.30823 11.2319 3.31035H4.48365L0 39H16.1444C25.4366 39 33.2602 37.374 39.4074 34.1665C43.8293 37.3772 50.8277 39 60.2661 39C79.523 39 109.239 28.3434 121 19.5196L118.917 16.8531ZM9.25321 8.23295H11.1149C14.639 8.23295 16.4021 9.68183 16.4043 12.5796C16.4043 16.8011 14.091 18.9118 9.46439 18.9118H7.93085L9.25321 8.23295ZM7.38827 23.1408H10.6373C11.6949 23.126 12.7512 23.2199 13.7888 23.4208C14.5563 23.5607 15.2842 23.8601 15.9234 24.299C16.4685 24.6887 16.8898 25.2215 17.1386 25.8359C17.4158 26.5552 17.5482 27.3202 17.5285 28.0888C17.5285 30.4223 16.7574 32.0865 15.2152 33.0814C14.208 33.7433 12.3517 34.0742 9.64634 34.0742H6.01719L7.38827 23.1408ZM39.7875 29.998C37.9843 28.0315 37.1883 25.5432 37.4645 22.5807C37.7894 18.95 39.5211 15.5039 41.6882 14.1961C42.2056 13.8644 42.8081 13.6825 43.4264 13.671C43.8269 13.6738 44.223 13.7527 44.5928 13.9033C46.0841 14.4856 46.4187 16.363 46.4837 17.429C46.7404 21.2665 44.4661 26.6855 39.7875 29.998Z" fill="black"/>
</g>
<defs>
<clipPath id="clip0_373_2377">
<rect width="121" height="36" fill="white" transform="translate(0 3)"/>
</clipPath>
</defs>
</svg>
