<svg width="212" height="49" viewBox="0 0 212 49" fill="none" xmlns="http://www.w3.org/2000/svg">
<path d="M141.76 29.08V39H135.28V29L124.44 11H131.32L138.8 23.44L146.28 11H152.64L141.76 29.08ZM166.768 39.32C164.502 39.32 162.462 38.8533 160.648 37.92C158.862 36.96 157.462 35.64 156.448 33.96C155.435 32.28 154.928 30.3733 154.928 28.24C154.928 26.1067 155.435 24.2 156.448 22.52C157.462 20.84 158.862 19.5333 160.648 18.6C162.462 17.64 164.502 17.16 166.768 17.16C169.035 17.16 171.062 17.64 172.848 18.6C174.635 19.5333 176.035 20.84 177.048 22.52C178.062 24.2 178.568 26.1067 178.568 28.24C178.568 30.3733 178.062 32.28 177.048 33.96C176.035 35.64 174.635 36.96 172.848 37.92C171.062 38.8533 169.035 39.32 166.768 39.32ZM166.768 34.2C168.368 34.2 169.675 33.6667 170.688 32.6C171.728 31.5067 172.248 30.0533 172.248 28.24C172.248 26.4267 171.728 24.9867 170.688 23.92C169.675 22.8267 168.368 22.28 166.768 22.28C165.168 22.28 163.848 22.8267 162.808 23.92C161.768 24.9867 161.248 26.4267 161.248 28.24C161.248 30.0533 161.768 31.5067 162.808 32.6C163.848 33.6667 165.168 34.2 166.768 34.2ZM208.419 17.48V39H202.499V36.44C201.673 37.3733 200.686 38.0933 199.539 38.6C198.393 39.08 197.153 39.32 195.819 39.32C192.993 39.32 190.753 38.5067 189.099 36.88C187.446 35.2533 186.619 32.84 186.619 29.64V17.48H192.859V28.72C192.859 32.1867 194.313 33.92 197.219 33.92C198.713 33.92 199.913 33.44 200.819 32.48C201.726 31.4933 202.179 30.04 202.179 28.12V17.48H208.419Z" fill="black"/>
<g clip-path="url(#clip0_373_2372)">
<path d="M118.917 16.8531C107.643 25.3109 78.3631 35.6493 60.2661 35.6493C52.4457 35.6493 46.4122 34.4592 42.5329 32.1777C47.7313 28.1047 50.1974 21.9029 49.9049 17.2222C49.7068 14.0624 48.235 11.7141 45.8664 10.7881C44.9 10.399 43.8515 10.2458 42.8112 10.3417C41.7709 10.4376 40.77 10.7797 39.8947 11.3386C36.7659 13.2256 34.4721 17.5245 34.0465 22.2911C33.7216 25.9568 34.641 29.123 36.7757 31.71C32.279 33.8483 26.8174 35.1211 20.4851 35.5125C21.021 34.8684 21.4719 34.1606 21.8269 33.406C22.5821 31.8698 22.9699 30.1852 22.9608 28.4802C22.9608 24.2608 20.8132 21.6261 16.518 20.576C20.0595 18.6838 21.8291 15.9335 21.8269 12.325C21.8848 10.1115 21.1219 7.95235 19.6793 6.24736C18.8217 5.2096 17.6868 4.4253 16.4011 3.98176C15.0776 3.53203 13.3546 3.30823 11.2319 3.31035H4.48365L0 39H16.1444C25.4366 39 33.2602 37.374 39.4074 34.1665C43.8293 37.3772 50.8277 39 60.2661 39C79.523 39 109.239 28.3434 121 19.5196L118.917 16.8531ZM9.25321 8.23295H11.1149C14.639 8.23295 16.4021 9.68183 16.4043 12.5796C16.4043 16.8011 14.091 18.9118 9.46439 18.9118H7.93085L9.25321 8.23295ZM7.38827 23.1408H10.6373C11.6949 23.126 12.7512 23.2199 13.7888 23.4208C14.5563 23.5607 15.2842 23.8601 15.9234 24.299C16.4685 24.6887 16.8898 25.2215 17.1386 25.8359C17.4158 26.5552 17.5482 27.3202 17.5285 28.0888C17.5285 30.4223 16.7574 32.0865 15.2152 33.0814C14.208 33.7433 12.3517 34.0742 9.64634 34.0742H6.01719L7.38827 23.1408ZM39.7875 29.998C37.9843 28.0315 37.1883 25.5432 37.4645 22.5807C37.7894 18.95 39.5211 15.5039 41.6882 14.1961C42.2056 13.8644 42.8081 13.6825 43.4264 13.671C43.8269 13.6738 44.223 13.7527 44.5928 13.9033C46.0841 14.4856 46.4187 16.363 46.4837 17.429C46.7404 21.2665 44.4661 26.6855 39.7875 29.998Z" fill="black"/>
</g>
<defs>
<clipPath id="clip0_373_2372">
<rect width="121" height="36" fill="white" transform="translate(0 3)"/>
</clipPath>
</defs>
</svg>
