<svg width="1440" height="480" viewBox="0 0 1440 480" fill="none" preserveAspectRatio="none" xmlns="http://www.w3.org/2000/svg">
<path d="M1523.77 184.622C1376.37 297.426 993.549 435.311 756.942 435.311C654.695 435.311 575.811 419.439 525.092 389.01C593.058 334.688 625.299 251.973 621.476 189.545C618.885 147.403 599.642 116.083 568.675 103.733C556.04 98.5427 542.331 96.4992 528.73 97.7783C515.129 99.0573 502.043 103.62 490.599 111.075C449.691 136.241 419.701 193.577 414.137 257.151C409.889 306.041 421.91 348.268 449.819 382.771C391.028 411.291 319.621 428.266 236.83 433.487C243.837 424.896 249.731 415.456 254.373 405.392C264.247 384.903 269.317 362.435 269.199 339.696C269.199 283.421 241.12 248.281 184.963 234.276C231.265 209.039 254.402 172.357 254.373 124.231C255.13 94.7084 245.155 65.9116 226.295 43.1718C215.082 29.3309 200.244 18.8705 183.434 12.955C166.131 6.95688 143.603 3.97191 115.85 4.0002H27.6209L-31 480H180.078C301.567 480 403.857 458.314 484.227 415.535C542.041 458.356 633.54 480 756.942 480C1008.71 480 1397.23 337.871 1551 220.186L1523.77 184.622ZM89.98 69.6539H114.32C160.396 69.6539 183.448 88.978 183.476 127.626C183.476 183.929 153.231 212.08 92.7411 212.08H72.691L89.98 69.6539ZM65.5971 268.482H108.076C121.904 268.286 135.714 269.538 149.281 272.217C159.315 274.083 168.832 278.077 177.189 283.93C184.316 289.127 189.824 296.234 193.076 304.428C196.7 314.022 198.431 324.225 198.174 334.475C198.174 365.598 188.092 387.793 167.929 401.063C154.76 409.89 130.491 414.304 95.1199 414.304H47.671L65.5971 268.482ZM489.197 359.939C465.621 333.712 455.214 300.524 458.825 261.013C463.072 212.59 485.714 166.628 514.047 149.185C520.813 144.762 528.689 142.335 536.773 142.183C542.009 142.219 547.189 143.272 552.023 145.281C571.521 153.047 575.896 178.086 576.746 192.304C580.102 243.485 550.367 315.76 489.197 359.939Z" fill="black"/>
</svg>
