<svg width="750" height="306" viewBox="0 0 750 306" fill="none" preserveAspectRatio="none" xmlns="http://www.w3.org/2000/svg">
<path d="M1010.7 125.076C923.982 183.606 826.973 219.161 727.152 247.891C648.04 270.668 567.82 287.017 484.788 282.414C443.252 280.112 402.231 274.715 364.219 253.089C403.577 217.375 427.651 176.146 426.78 123.568C426.305 94.2833 411.615 71.9426 389.006 64.8396C361.843 56.3081 340.184 66.4666 322.248 86.5454C286.334 126.703 279.366 193.963 307.756 239.637C310.488 244.041 313.655 248.883 313.655 248.883C313.655 248.883 306.766 252.494 302.569 254.16C262.339 270.588 220.447 279.08 175.19 281.739C191.384 257.811 197.997 233.089 194.195 206.066C190.038 176.345 170.003 160.631 141.85 151.187C147.948 146.822 152.343 144.044 156.263 140.75C183.307 118.211 191.463 89.2835 182.436 56.1494C173.883 24.8406 153.095 6.34905 119.874 2.18248C98.2157 -0.555541 80.6748 0.0793631 55.0168 0.0793631C36.1297 0.0793631 48.0084 0 33.6352 0C27.1811 56.5065 20.6083 131.941 13.0851 188.249L-6 314C38.5847 313.683 94.4541 313.484 139.039 312.889C204.53 312.016 268.556 303.603 328.306 274.517C331.077 273.168 335.829 270.866 335.829 270.866C335.829 270.866 339.986 272.731 342.521 274.279C404.923 312.413 474.414 315.587 544.339 311.5C651.406 305.27 753.325 275.588 852.869 237.494C914.123 214.042 973.675 186.9 1028 149.56L1010.7 125.076ZM69.3109 108.45C71.4886 92.3389 75.0126 62.8556 76.7944 43.6497C82.5358 43.6497 80.9916 43.6497 92.3951 43.6497C120.904 44.0862 135.871 54.6812 138.722 75.3156C142.444 102.061 129.179 125.751 106.254 133.171C103.759 133.965 92.3951 137.457 65.5889 137.457C67.5687 121.783 65.1929 139.004 69.3109 108.45ZM106.491 270.707C94.0977 270.707 86.4954 270.707 75.2502 270.707H45.989L59.8475 173.726C65.4305 173.726 63.1339 173.726 72.7161 173.726C86.0598 173.726 96.3547 173.845 107.996 175.392C137.574 179.321 148.423 191.305 148.304 218.169C148.185 247.771 135.119 270.707 106.491 270.707ZM346.124 228.962C343.669 231.145 341.887 232.693 340.264 233.248C338.64 232.296 336.067 229.637 334.008 226.661C323.515 211.661 319.199 194.995 319.595 176.9C320.743 149.52 327.712 124.124 346.955 103.648C355.112 94.9579 364.971 88.1724 378.236 92.577C391.461 96.942 395.737 107.577 396.489 119.918C399.301 165.155 379.067 199.876 346.124 228.962Z" fill="black" fill-opacity="0.05"/>
</svg>
