<svg width="18" height="16" viewBox="0 0 18 16" fill="none" xmlns="http://www.w3.org/2000/svg">
<path d="M15.7982 4.38398C15.8089 4.54889 15.8089 4.7138 15.8089 4.88023C15.8089 9.95139 12.1766 15.8 5.5349 15.8V15.7969C3.57291 15.8 1.65168 15.2027 0 14.0764C0.285289 14.1129 0.572009 14.1311 0.859443 14.1319C2.48538 14.1334 4.06484 13.5536 5.34399 12.4858C3.79885 12.4547 2.44391 11.3839 1.97057 9.82067C2.51183 9.93163 3.06954 9.90883 3.6008 9.75456C1.91623 9.39282 0.704286 7.81972 0.704286 5.99279C0.704286 5.97608 0.704286 5.96012 0.704286 5.94416C1.20622 6.2413 1.76822 6.40621 2.34309 6.42445C0.756482 5.29744 0.267414 3.05406 1.22553 1.30009C3.05882 3.69774 5.76371 5.15533 8.66737 5.3096C8.37636 3.97664 8.7739 2.57985 9.712 1.64283C11.1663 0.189801 13.4537 0.264276 14.8208 1.80926C15.6294 1.63979 16.4045 1.32441 17.1138 0.877558C16.8442 1.76594 16.2801 2.52057 15.5265 3.0001C16.2422 2.91043 16.9415 2.70676 17.6 2.39594C17.1152 3.16805 16.5046 3.84061 15.7982 4.38398Z" fill="#1D9BF0"/>
</svg>
