<svg width="25" height="28" viewBox="0 0 25 28" fill="none" xmlns="http://www.w3.org/2000/svg">
<path d="M8.21843 12.1325V11.2762C7.91834 11.2291 7.61524 11.2033 7.31145 11.199C4.37026 11.1928 1.76636 13.0808 0.883116 15.8599C-0.000123084 18.6389 1.04244 21.6641 3.45661 23.328C2.57133 22.3895 1.97919 21.2172 1.75168 19.9526C1.52417 18.688 1.671 17.3853 2.17446 16.2016C2.67792 15.0178 3.51648 14.0038 4.58893 13.2818C5.66137 12.5597 6.92185 12.1606 8.21823 12.1326L8.21843 12.1325Z" fill="#25F4EE"/>
<path d="M8.38146 21.8329C10.0259 21.8307 11.3776 20.5474 11.4496 18.92V4.39744H14.1279C14.0732 4.09398 14.0471 3.78615 14.05 3.47791L10.3866 3.47791V17.9864C10.3257 19.6221 8.97078 20.9178 7.31849 20.9204C6.82473 20.9162 6.33902 20.796 5.90137 20.5695C6.18502 20.9587 6.55753 21.2761 6.98853 21.4957C7.41953 21.7152 7.89681 21.8308 8.38146 21.8329ZM19.1304 9.32478V8.51759C18.1447 8.51797 17.1809 8.22985 16.36 7.6894C17.0796 8.51816 18.0521 9.09224 19.1304 9.32478Z" fill="#25F4EE"/>
<path d="M16.36 7.68943C15.5513 6.77719 15.1055 5.60448 15.1059 4.39038H14.1279C14.2543 5.06164 14.5173 5.70036 14.9011 6.26757C15.2848 6.83478 15.7813 7.31857 16.36 7.68943ZM7.31151 14.8279C6.62566 14.8313 5.96066 15.0618 5.42223 15.4827C4.8838 15.9035 4.50286 16.4906 4.33996 17.1506C4.17705 17.8105 4.24155 18.5055 4.52318 19.125C4.80482 19.7445 5.28743 20.2529 5.89429 20.5695C5.56249 20.1157 5.3638 19.5798 5.32015 19.0212C5.27651 18.4625 5.38963 17.9028 5.647 17.4038C5.90436 16.9048 6.29597 16.486 6.77855 16.1937C7.26113 15.9014 7.81589 15.7469 8.38154 15.7473C8.68906 15.7513 8.99443 15.7987 9.28843 15.8881V12.1957C8.98819 12.1511 8.68513 12.1276 8.38154 12.1255H8.21849V14.9331C7.92293 14.8546 7.6174 14.8191 7.31151 14.8279Z" fill="#FE2C55"/>
<path d="M19.1304 9.32471V12.1324C17.3056 12.1289 15.5282 11.5567 14.0499 10.4969V17.874C14.0421 21.5551 11.0274 24.5352 7.31138 24.5352C5.93127 24.5377 4.58439 24.1158 3.45654 23.3279C4.37623 24.3078 5.57251 24.9906 6.88954 25.2875C8.20657 25.5843 9.58332 25.4813 10.8404 24.992C12.0976 24.5027 13.1768 23.6498 13.9376 22.5442C14.6984 21.4386 15.1054 20.1317 15.1057 18.7938V11.4375C16.589 12.4904 18.3686 13.0551 20.1933 13.0519V9.43676C19.836 9.4357 19.4798 9.39816 19.1304 9.32471Z" fill="#FE2C55"/>
<path d="M14.0501 17.8741V10.497C15.5328 11.5508 17.3128 12.1156 19.1376 12.1114V9.30382C18.0595 9.07829 17.0847 8.51168 16.3601 7.68943C15.7813 7.31857 15.2849 6.83478 14.9011 6.26757C14.5173 5.70036 14.2543 5.06164 14.128 4.39038H11.4497V18.9202C11.4236 19.5527 11.1993 20.1614 10.8079 20.6617C10.4166 21.1621 9.87755 21.5292 9.26582 21.7122C8.6541 21.8951 8.00004 21.8847 7.39454 21.6825C6.78903 21.4803 6.26217 21.0962 5.88716 20.5837C5.2802 20.2672 4.79748 19.7587 4.51577 19.1392C4.23407 18.5197 4.16954 17.8246 4.33245 17.1646C4.49536 16.5045 4.87637 15.9174 5.41487 15.4965C5.95337 15.0757 6.61846 14.8452 7.30438 14.8419C7.61201 14.8446 7.91757 14.8919 8.21137 14.9823V12.1746C6.90802 12.1965 5.63926 12.5936 4.55978 13.3174C3.48031 14.0412 2.63676 15.0606 2.13199 16.2511C1.62721 17.4416 1.48303 18.7519 1.71702 20.0222C1.951 21.2925 2.55305 22.4679 3.44974 23.4052C4.58867 24.1671 5.93746 24.5618 7.31155 24.5353C11.0276 24.5353 14.0422 21.5552 14.0501 17.8741Z" fill="black"/>
</svg>
