<svg width="583" height="104" viewBox="0 0 583 104" fill="none" xmlns="http://www.w3.org/2000/svg">
<path d="M0.815484 102H-0.074236V102.89H0.815484V102ZM0.815484 2.35134V1.46162H-0.074236V2.35134H0.815484ZM67.0107 6.76435L66.6416 7.57397L66.6515 7.57837L67.0107 6.76435ZM81.958 19.1493L81.2117 19.6337L81.2117 19.6337L81.958 19.1493ZM67.0107 70.2548L67.3698 71.0689L67.3797 71.0643L67.0107 70.2548ZM13.6275 74.5254L12.994 73.9007L11.5003 75.4152H13.6275V74.5254ZM23.877 64.1335H24.7668V61.9644L23.2436 63.5087L23.877 64.1335ZM23.877 102V102.89H24.7668V102H23.877ZM23.877 66.6959L23.2272 67.3036L24.7668 68.9501V66.6959H23.877ZM13.6275 55.7345V54.8448H11.5774L12.9776 56.3422L13.6275 55.7345ZM13.6275 21.1422L12.9776 20.5346L11.5774 22.032H13.6275V21.1422ZM23.877 10.1809H24.7668V7.92669L23.2272 9.5732L23.877 10.1809ZM1.7052 102V2.35134H-0.074236V102H1.7052ZM0.815484 3.24106H43.9491V1.46162H0.815484V3.24106ZM43.9491 3.24106C52.7745 3.24106 60.3299 4.6965 66.6416 7.57391L67.3797 5.95479C60.7846 2.94818 52.9656 1.46162 43.9491 1.46162V3.24106ZM66.6515 7.57837C72.9621 10.3624 77.8033 14.3829 81.2117 19.6337L82.7042 18.6648C79.0898 13.0966 73.9661 8.86048 67.3698 5.95033L66.6515 7.57837ZM81.2117 19.6337C84.6151 24.8767 86.3354 31.1556 86.3354 38.5096H88.1148C88.1148 30.8688 86.3237 24.2408 82.7042 18.6648L81.2117 19.6337ZM86.3354 38.5096C86.3354 45.7662 84.6162 51.9982 81.2117 57.2431L82.7042 58.2119C86.3225 52.6378 88.1148 46.0579 88.1148 38.5096H86.3354ZM81.2117 57.2431C77.8016 62.4965 72.9569 66.5662 66.6416 69.4452L67.3797 71.0643C73.9714 68.0593 79.0915 63.7775 82.7042 58.2119L81.2117 57.2431ZM66.6515 69.4408C60.337 72.2266 52.778 73.6357 43.9491 73.6357V75.4152C52.9621 75.4152 60.7775 73.9772 67.3698 71.0688L66.6515 69.4408ZM43.9491 73.6357H13.6275V75.4152H43.9491V73.6357ZM14.2609 75.1502L24.5105 64.7583L23.2436 63.5087L12.994 73.9007L14.2609 75.1502ZM22.9873 64.1335V102H24.7668V64.1335H22.9873ZM23.877 101.11H0.815484V102.89H23.877V101.11ZM24.5269 66.0882L14.2773 55.1269L12.9776 56.3422L23.2272 67.3036L24.5269 66.0882ZM13.6275 56.6243H42.6679V54.8448H13.6275V56.6243ZM42.6679 56.6243C49.8901 56.6243 55.4537 55.0868 59.1937 51.8521L58.0297 50.5062C54.7469 53.3454 49.6813 54.8448 42.6679 54.8448V56.6243ZM59.1937 51.8521C62.9336 48.6176 64.7686 44.1302 64.7686 38.5096H62.9891C62.9891 43.7079 61.3126 47.6669 58.0297 50.5062L59.1937 51.8521ZM64.7686 38.5096C64.7686 32.7996 62.9372 28.2623 59.1937 25.0246L58.0297 26.3705C61.3091 29.2067 62.9891 33.2107 62.9891 38.5096H64.7686ZM59.1937 25.0246C55.4537 21.79 49.8901 20.2525 42.6679 20.2525V22.032C49.6813 22.032 54.7469 23.5314 58.0297 26.3705L59.1937 25.0246ZM42.6679 20.2525H13.6275V22.032H42.6679V20.2525ZM14.2773 21.7499L24.5269 10.7885L23.2272 9.5732L12.9776 20.5346L14.2773 21.7499ZM22.9873 10.1809V66.6959H24.7668V10.1809H22.9873ZM100.842 102H99.9526V102.89H100.842V102ZM100.842 2.35134V1.46162H99.9526V2.35134H100.842ZM123.904 2.35134H124.794V1.46162H123.904V2.35134ZM123.904 102V102.89H124.794V102H123.904ZM101.732 102V2.35134H99.9526V102H101.732ZM100.842 3.24106H123.904V1.46162H100.842V3.24106ZM123.014 2.35134V102H124.794V2.35134H123.014ZM123.904 101.11H100.842V102.89H123.904V101.11ZM170.899 100.007L170.575 100.836L170.582 100.838L170.589 100.841L170.899 100.007ZM153.816 89.188L153.2 89.8296L153.2 89.8296L153.816 89.188ZM142.428 72.8172L141.609 73.1647L141.613 73.1751L142.428 72.8172ZM142.428 31.5342L141.613 31.1762L141.609 31.1867L142.428 31.5342ZM153.816 15.1633L153.206 14.5158L153.2 14.5217L153.816 15.1633ZM171.041 4.48666L171.355 5.3193L171.365 5.31521L171.041 4.48666ZM215.883 5.19845L215.526 6.01331L215.533 6.01625L215.539 6.01907L215.883 5.19845ZM233.535 18.2951L234.139 18.9489L234.755 18.3799L234.223 17.7311L233.535 18.2951ZM218.73 31.9612L218.062 32.5483L218.663 33.2337L219.334 32.615L218.73 31.9612ZM207.342 23.2776L206.959 24.0805L206.966 24.0841L206.974 24.0875L207.342 23.2776ZM170.756 29.1141L171.386 29.7432L171.386 29.7432L170.756 29.1141ZM164.066 39.2213L163.244 38.8806L163.24 38.8892L163.237 38.8979L164.066 39.2213ZM164.066 65.13L163.237 65.4534L163.24 65.4621L163.244 65.4708L164.066 65.13ZM170.756 75.2372L170.127 75.8663L170.127 75.8663L170.756 75.2372ZM207.342 81.2161L207.71 82.0261L207.718 82.0227L207.725 82.0191L207.342 81.2161ZM218.73 72.2478L219.334 71.594L218.655 70.9679L218.055 71.6687L218.73 72.2478ZM233.535 85.9139L234.223 86.4779L234.755 85.8291L234.139 85.2601L233.535 85.9139ZM215.883 99.1529L215.53 98.3362L215.526 98.338L215.883 99.1529ZM192.394 102.819C184.804 102.819 177.745 101.601 171.209 99.173L170.589 100.841C177.34 103.348 184.611 104.598 192.394 104.598V102.819ZM171.223 99.1785C164.778 96.6566 159.185 93.112 154.433 88.5464L153.2 89.8296C158.128 94.5646 163.923 98.2327 170.575 100.836L171.223 99.1785ZM154.433 88.5464C149.678 83.9784 145.949 78.6184 143.242 72.4593L141.613 73.1751C144.411 79.5432 148.274 85.0971 153.2 89.8296L154.433 88.5464ZM143.247 72.4697C140.641 66.3267 139.332 59.5659 139.332 52.1757H137.552C137.552 59.7802 138.9 66.7804 141.609 73.1647L143.247 72.4697ZM139.332 52.1757C139.332 44.7855 140.641 38.0246 143.247 31.8816L141.609 31.1867C138.9 37.5709 137.552 44.5711 137.552 52.1757H139.332ZM143.242 31.8921C145.949 25.7329 149.678 20.3729 154.433 15.8049L153.2 14.5217C148.274 19.2543 144.411 24.8081 141.613 31.1762L143.242 31.8921ZM154.426 15.8108C159.273 11.2438 164.913 7.74661 171.355 5.31924L170.727 3.65409C164.073 6.1617 158.229 9.78224 153.206 14.5158L154.426 15.8108ZM171.365 5.31521C177.8 2.79734 184.854 1.5328 192.537 1.5328V-0.246642C184.656 -0.246642 177.379 1.0512 170.717 3.65812L171.365 5.31521ZM192.537 1.5328C201.067 1.5328 208.725 3.03229 215.526 6.01331L216.24 4.38358C209.185 1.29078 201.279 -0.246642 192.537 -0.246642V1.5328ZM215.539 6.01907C222.431 8.90594 228.196 13.1844 232.847 18.8591L234.223 17.7311C229.384 11.8276 223.381 7.37496 216.227 4.37782L215.539 6.01907ZM232.932 17.6414L218.127 31.3075L219.334 32.615L234.139 18.9489L232.932 17.6414ZM219.399 31.3742C215.91 27.4006 212.014 24.4242 207.71 22.4676L206.974 24.0875C211.021 25.9271 214.718 28.7398 218.062 32.5483L219.399 31.3742ZM207.725 22.4746C203.422 20.4208 198.734 19.3984 193.676 19.3984V21.1778C198.487 21.1778 202.91 22.1484 206.959 24.0805L207.725 22.4746ZM193.676 19.3984C188.927 19.3984 184.545 20.1739 180.54 21.7369L181.187 23.3946C184.964 21.9207 189.124 21.1778 193.676 21.1778V19.3984ZM180.54 21.7369C176.539 23.2984 173.065 25.5476 170.127 28.485L171.386 29.7432C174.142 26.9864 177.406 24.8701 181.187 23.3946L180.54 21.7369ZM170.127 28.485C167.194 31.4184 164.9 34.8868 163.244 38.8806L164.888 39.5621C166.458 35.7738 168.625 32.504 171.386 29.7432L170.127 28.485ZM163.237 38.8979C161.673 42.9051 160.898 47.3348 160.898 52.1757H162.678C162.678 47.5262 163.422 43.3197 164.895 39.5448L163.237 38.8979ZM160.898 52.1757C160.898 57.0166 161.673 61.4463 163.237 65.4534L164.895 64.8065C163.422 61.0316 162.678 56.8251 162.678 52.1757H160.898ZM163.244 65.4708C164.9 69.4646 167.194 72.9329 170.127 75.8663L171.386 74.6081C168.625 71.8473 166.458 68.5775 164.888 64.7892L163.244 65.4708ZM170.127 75.8663C173.065 78.8037 176.539 81.0529 180.54 82.6144L181.187 80.9567C177.406 79.4813 174.142 77.3649 171.386 74.6081L170.127 75.8663ZM180.54 82.6144C184.545 84.1774 188.927 84.953 193.676 84.953V83.1735C189.124 83.1735 184.964 82.4306 181.187 80.9567L180.54 82.6144ZM193.676 84.953C198.728 84.953 203.41 83.9806 207.71 82.0261L206.974 80.4062C202.922 82.2478 198.493 83.1735 193.676 83.1735V84.953ZM207.725 82.0191C212.027 79.9659 215.919 76.8943 219.406 72.8268L218.055 71.6687C214.708 75.5731 211.008 78.4804 206.959 80.4132L207.725 82.0191ZM218.127 72.9015L232.932 86.5676L234.139 85.2601L219.334 71.594L218.127 72.9015ZM232.847 85.3498C228.194 91.0268 222.426 95.3544 215.53 98.3363L216.236 99.9695C223.386 96.8776 229.386 92.3792 234.223 86.4779L232.847 85.3498ZM215.526 98.338C208.727 101.319 201.021 102.819 192.394 102.819V104.598C201.23 104.598 209.184 103.061 216.24 99.9678L215.526 98.338ZM266.903 79.2232L266.014 79.2659L266.114 81.3331L267.545 79.8386L266.903 79.2232ZM265.622 52.6027L264.976 51.9903L264.715 52.2659L264.733 52.6455L265.622 52.6027ZM313.311 2.35134V1.46162H312.929L312.665 1.73888L313.311 2.35134ZM338.935 2.35134L339.586 2.95698L340.976 1.46162H338.935V2.35134ZM295.943 48.6168L296.593 49.2253L296.595 49.2224L295.943 48.6168ZM283.131 62.2829L283.774 62.8984L283.781 62.8914L283.131 62.2829ZM246.261 102H245.372V102.89H246.261V102ZM246.261 2.35134V1.46162H245.372V2.35134H246.261ZM269.181 2.35134H270.07V1.46162H269.181V2.35134ZM269.181 102V102.89H270.07V102H269.181ZM314.45 102L313.76 102.563L314.027 102.89H314.45V102ZM279.003 58.5817L278.349 57.9786L277.826 58.5463L278.314 59.1443L279.003 58.5817ZM294.093 42.2108L294.791 41.6591L294.145 40.8417L293.439 41.6078L294.093 42.2108ZM341.355 102V102.89H343.192L342.053 101.448L341.355 102ZM267.792 79.1804L266.51 52.56L264.733 52.6455L266.014 79.2659L267.792 79.1804ZM266.267 53.2152L313.956 2.96379L312.665 1.73888L264.976 51.9903L266.267 53.2152ZM313.311 3.24106H338.935V1.46162H313.311V3.24106ZM338.283 1.74569L295.292 48.0111L296.595 49.2224L339.586 2.95698L338.283 1.74569ZM295.294 48.0083L282.482 61.6744L283.781 62.8914L296.593 49.2253L295.294 48.0083ZM282.489 61.6674L266.26 78.6077L267.545 79.8386L283.774 62.8984L282.489 61.6674ZM247.151 102V2.35134H245.372V102H247.151ZM246.261 3.24106H269.181V1.46162H246.261V3.24106ZM268.291 2.35134V102H270.07V2.35134H268.291ZM269.181 101.11H246.261V102.89H269.181V101.11ZM315.139 101.437L279.692 58.019L278.314 59.1443L313.76 102.563L315.139 101.437ZM279.657 59.1847L294.747 42.8138L293.439 41.6078L278.349 57.9786L279.657 59.1847ZM293.395 42.7625L340.657 102.552L342.053 101.448L294.791 41.6591L293.395 42.7625ZM341.355 101.11H314.45V102.89H341.355V101.11ZM397.363 91.8928L397.988 91.2599L397.988 91.2599L397.363 91.8928ZM385.405 2.35134V1.46162H384.515V2.35134H385.405ZM408.466 2.35134H409.356V1.46162H408.466V2.35134ZM414.303 77.7996L413.652 78.4062L413.652 78.4062L414.303 77.7996ZM447.045 77.7996L447.696 78.4062L447.696 78.4062L447.045 77.7996ZM452.881 2.35134V1.46162H451.991V2.35134H452.881ZM475.658 2.35134H476.548V1.46162H475.658V2.35134ZM463.7 91.8928L464.326 92.5257L464.326 92.5257L463.7 91.8928ZM430.531 102.819C416.561 102.819 405.753 98.932 397.988 91.2599L396.737 92.5257C404.917 100.608 416.221 104.598 430.531 104.598V102.819ZM397.988 91.2599C390.232 83.5965 386.295 72.6073 386.295 58.1546H384.515C384.515 72.9321 388.549 84.4351 396.737 92.5257L397.988 91.2599ZM386.295 58.1546V2.35134H384.515V58.1546H386.295ZM385.405 3.24106H408.466V1.46162H385.405V3.24106ZM407.577 2.35134V57.3005H409.356V2.35134H407.577ZM407.577 57.3005C407.577 66.8761 409.533 73.986 413.652 78.4062L414.954 77.1931C411.29 73.2617 409.356 66.7055 409.356 57.3005H407.577ZM413.652 78.4062C417.749 82.8028 423.465 84.953 430.674 84.953V83.1735C423.837 83.1735 418.639 81.1479 414.954 77.1931L413.652 78.4062ZM430.674 84.953C437.882 84.953 443.599 82.8028 447.696 78.4062L446.394 77.1931C442.708 81.1479 437.511 83.1735 430.674 83.1735V84.953ZM447.696 78.4062C451.814 73.986 453.771 66.8761 453.771 57.3005H451.991C451.991 66.7055 450.057 73.2617 446.394 77.1931L447.696 78.4062ZM453.771 57.3005V2.35134H451.991V57.3005H453.771ZM452.881 3.24106H475.658V1.46162H452.881V3.24106ZM474.768 2.35134V58.1546H476.548V2.35134H474.768ZM474.768 58.1546C474.768 72.6073 470.831 83.5965 463.075 91.2599L464.326 92.5257C472.514 84.4351 476.548 72.9321 476.548 58.1546H474.768ZM463.075 91.2599C455.31 98.932 444.502 102.819 430.531 102.819V104.598C444.842 104.598 456.146 100.608 464.326 92.5257L463.075 91.2599ZM495.6 102H494.71V102.89H495.6V102ZM495.6 2.35134V1.46162H494.71V2.35134H495.6ZM561.795 6.76435L561.426 7.57397L561.436 7.57837L561.795 6.76435ZM576.742 19.1493L575.996 19.6337L575.996 19.6337L576.742 19.1493ZM561.795 70.2548L562.154 71.0689L562.164 71.0643L561.795 70.2548ZM508.412 74.5254L507.778 73.9007L506.285 75.4152H508.412V74.5254ZM518.662 64.1335H519.551V61.9644L518.028 63.5087L518.662 64.1335ZM518.662 102V102.89H519.551V102H518.662ZM518.662 66.6959L518.012 67.3036L519.551 68.9501V66.6959H518.662ZM508.412 55.7345V54.8448H506.362L507.762 56.3422L508.412 55.7345ZM508.412 21.1422L507.762 20.5346L506.362 22.032H508.412V21.1422ZM518.662 10.1809H519.551V7.92669L518.012 9.5732L518.662 10.1809ZM496.49 102V2.35134H494.71V102H496.49ZM495.6 3.24106H538.734V1.46162H495.6V3.24106ZM538.734 3.24106C547.559 3.24106 555.114 4.6965 561.426 7.57391L562.164 5.95479C555.569 2.94818 547.75 1.46162 538.734 1.46162V3.24106ZM561.436 7.57837C567.747 10.3624 572.588 14.3829 575.996 19.6337L577.489 18.6648C573.874 13.0966 568.751 8.86048 562.154 5.95033L561.436 7.57837ZM575.996 19.6337C579.4 24.8767 581.12 31.1556 581.12 38.5096H582.899C582.899 30.8688 581.108 24.2408 577.489 18.6648L575.996 19.6337ZM581.12 38.5096C581.12 45.7662 579.401 51.9982 575.996 57.2431L577.489 58.2119C581.107 52.6378 582.899 46.0579 582.899 38.5096H581.12ZM575.996 57.2431C572.586 62.4965 567.741 66.5662 561.426 69.4452L562.164 71.0643C568.756 68.0593 573.876 63.7775 577.489 58.2119L575.996 57.2431ZM561.436 69.4408C555.121 72.2266 547.562 73.6357 538.734 73.6357V75.4152C547.747 75.4152 555.562 73.9772 562.154 71.0688L561.436 69.4408ZM538.734 73.6357H508.412V75.4152H538.734V73.6357ZM509.045 75.1502L519.295 64.7583L518.028 63.5087L507.778 73.9007L509.045 75.1502ZM517.772 64.1335V102H519.551V64.1335H517.772ZM518.662 101.11H495.6V102.89H518.662V101.11ZM519.311 66.0882L509.062 55.1269L507.762 56.3422L518.012 67.3036L519.311 66.0882ZM508.412 56.6243H537.452V54.8448H508.412V56.6243ZM537.452 56.6243C544.675 56.6243 550.238 55.0868 553.978 51.8521L552.814 50.5062C549.531 53.3454 544.466 54.8448 537.452 54.8448V56.6243ZM553.978 51.8521C557.718 48.6176 559.553 44.1302 559.553 38.5096H557.774C557.774 43.7079 556.097 47.6669 552.814 50.5062L553.978 51.8521ZM559.553 38.5096C559.553 32.7996 557.722 28.2623 553.978 25.0246L552.814 26.3705C556.094 29.2067 557.774 33.2107 557.774 38.5096H559.553ZM553.978 25.0246C550.238 21.79 544.675 20.2525 537.452 20.2525V22.032C544.466 22.032 549.531 23.5314 552.814 26.3705L553.978 25.0246ZM537.452 20.2525H508.412V22.032H537.452V20.2525ZM509.062 21.7499L519.311 10.7885L518.012 9.5732L507.762 20.5346L509.062 21.7499ZM517.772 10.1809V66.6959H519.551V10.1809H517.772Z" fill="black"/>
</svg>
