<svg width="120" height="52" viewBox="0 0 120 52" fill="none" xmlns="http://www.w3.org/2000/svg">
<g clip-path="url(#clip0_547_1152)">
<path d="M9.61682 36.3057H16.006C25.2347 36.3057 32.9822 34.6414 39.0779 31.3865C43.4698 34.6557 50.408 36.3057 59.7669 36.3057C78.8657 36.3057 108.336 25.4616 120.002 16.4839L117.937 13.7734C106.753 22.3803 77.7086 32.8939 59.7669 32.8939C52.0147 32.8939 46.0279 31.6813 42.1802 29.3608C47.3507 25.2167 49.7833 18.8995 49.4922 14.1443C49.2958 10.9275 47.8358 8.54038 45.4884 7.59649C44.5308 7.20153 43.492 7.04624 42.4615 7.14399C41.431 7.24173 40.4396 7.58957 39.5725 8.15759C36.4702 10.0763 34.1961 14.451 33.7773 19.3013C33.4555 23.0317 34.3641 26.251 36.482 28.8853C32.0238 31.0584 26.6072 32.3518 20.3269 32.7513C20.859 32.0972 21.3066 31.3782 21.6592 30.6114C22.4057 29.0484 22.7892 27.3355 22.7808 25.6019C22.7808 21.3048 20.6511 18.6237 16.3917 17.5585C19.9034 15.6295 21.6592 12.8311 21.6592 9.16331C21.6592 6.75086 20.9493 4.69029 19.5295 2.98161C18.6766 1.92687 17.5507 1.12888 16.2757 0.675361C14.9648 0.220451 13.2563 -0.00621547 11.1502 -0.00463042H4.45583L0 36.3057H9.61682ZM37.154 19.6033C37.4735 15.9085 39.1962 12.4016 41.3449 11.0725C41.8576 10.7349 42.4547 10.5495 43.0676 10.5375C43.4657 10.5415 43.8593 10.6223 44.2271 10.7753C45.7037 11.3697 46.035 13.2789 46.1012 14.3631C46.3379 18.2694 44.0875 23.7807 39.4589 27.1521C37.6699 25.1525 36.8961 22.6133 37.154 19.6056V19.6033ZM9.17669 5.00493H11.0201C14.5144 5.00493 16.2623 6.47903 16.2639 9.42722C16.2639 13.7227 13.9701 15.8705 9.38256 15.8705H7.86101L9.17669 5.00493ZM7.32621 20.1739H10.5468C11.5958 20.1582 12.6435 20.2531 13.6728 20.4568C14.4383 20.5977 15.1647 20.9026 15.8025 21.3508C16.3424 21.7471 16.7599 22.2886 17.007 22.9128C17.2816 23.6455 17.4126 24.4246 17.3927 25.2072C17.3927 27.5737 16.6283 29.2665 15.0997 30.2857C14.1011 30.9609 12.2601 31.2986 9.57661 31.2986H5.97267L7.32621 20.1739Z" fill="black"/>
<path d="M0.0355225 46.6314H2.09898V51.9311H2.95087V46.6314H5.01669V45.8801H0.0355225V46.6314Z" fill="black"/>
<path d="M8.70107 47.3042C8.39794 47.2873 8.09503 47.3409 7.81591 47.4609C7.5368 47.5809 7.28904 47.7641 7.09197 47.9961V45.5139H6.26611V51.9334H7.09197V49.5748C7.09197 48.581 7.65989 48.0532 8.5378 48.0532C9.32107 48.0532 9.76829 48.493 9.76829 49.3917V51.9334H10.5941V49.2966C10.5941 47.9557 9.81089 47.3042 8.70107 47.3042Z" fill="black"/>
<path d="M14.4489 47.3042C14.1431 47.2962 13.8389 47.3513 13.5552 47.4662C13.2714 47.5811 13.0142 47.7534 12.7995 47.9723C12.5847 48.1912 12.417 48.4521 12.3067 48.7388C12.1964 49.0255 12.1459 49.3319 12.1583 49.639C12.1583 51.0038 13.1404 51.9809 14.6122 51.9809C14.9478 51.997 15.2827 51.939 15.5935 51.8108C15.9042 51.6826 16.1832 51.4875 16.4107 51.2391L15.9539 50.7018C15.7874 50.8841 15.5836 51.028 15.3565 51.1236C15.1294 51.2192 14.8844 51.2643 14.6383 51.2558C13.7343 51.2558 13.0883 50.7184 12.9818 49.9148H16.6804C16.6903 49.832 16.6959 49.7486 16.697 49.6652C16.6993 48.2553 15.7646 47.3042 14.4489 47.3042ZM12.9866 49.318C13.0156 48.9523 13.1837 48.6119 13.456 48.3675C13.7284 48.123 14.084 47.9935 14.4489 48.0056C14.8139 47.9935 15.1695 48.123 15.4418 48.3675C15.7142 48.6119 15.8824 48.9523 15.9114 49.318H12.9866Z" fill="black"/>
<path d="M22.2437 47.5039C22.2437 46.9761 22.6815 46.5529 23.7061 46.5529C24.2935 46.5565 24.8678 46.7271 25.3626 47.0451L25.6465 46.3532C25.066 45.9914 24.3939 45.8057 23.7109 45.8182C22.1278 45.8182 21.4037 46.6123 21.4037 47.5467C21.4037 49.7959 25.0526 48.8615 25.0526 50.3404C25.0526 50.8682 24.6053 51.2724 23.5641 51.2724C22.8407 51.2796 22.1375 51.0323 21.5764 50.5734L21.257 51.2486C21.7302 51.698 22.6436 52.0094 23.5641 52.0094C25.1567 52.0094 25.895 51.2129 25.895 50.2881C25.8903 48.0555 22.2437 48.9804 22.2437 47.5039Z" fill="black"/>
<path d="M29.4114 47.3042C28.0413 47.3042 27.045 48.2719 27.045 49.639C27.045 51.0061 28.0507 51.9809 29.4114 51.9809C29.7227 51.9944 30.0335 51.9433 30.3243 51.8309C30.6151 51.7185 30.8798 51.547 31.1018 51.3273C31.3238 51.1076 31.4984 50.8443 31.6147 50.5539C31.731 50.2634 31.7865 49.952 31.7777 49.639C31.7777 48.2719 30.7791 47.3042 29.4114 47.3042ZM29.4114 51.2557C28.5335 51.2557 27.8709 50.6162 27.8709 49.639C27.8709 48.6618 28.5335 48.0294 29.4114 48.0294C30.2893 48.0294 30.9424 48.6618 30.9424 49.639C30.9424 50.6162 30.2893 51.2557 29.4114 51.2557Z" fill="black"/>
<path d="M35.3297 48.0294C35.5754 48.0219 35.8189 48.0786 36.0362 48.1941C36.2536 48.3095 36.4374 48.4797 36.5696 48.688L37.1967 48.2814C36.837 47.6418 36.1579 47.3042 35.3391 47.3042C33.9359 47.3042 32.9302 48.2719 32.9302 49.639C32.9302 51.0061 33.9359 51.9809 35.3391 51.9809C36.1579 51.9809 36.837 51.6361 37.1967 50.9966L36.5696 50.5971C36.4374 50.8054 36.2536 50.9756 36.0362 51.091C35.8189 51.2065 35.5754 51.2632 35.3297 51.2557C34.4352 51.2557 33.7655 50.6328 33.7655 49.639C33.7532 49.4276 33.7849 49.216 33.8587 49.0176C33.9324 48.8193 34.0465 48.6386 34.1938 48.4871C34.341 48.3356 34.5181 48.2166 34.7137 48.1378C34.9093 48.059 35.119 48.0221 35.3297 48.0294Z" fill="black"/>
<path d="M39.5204 47.3494H38.6946V51.931H39.5204V47.3494Z" fill="black"/>
<path d="M39.1087 45.3855C39.036 45.3833 38.9637 45.3957 38.8959 45.4221C38.8281 45.4484 38.7662 45.4881 38.7139 45.5389C38.6616 45.5896 38.62 45.6504 38.5915 45.7176C38.563 45.7847 38.5481 45.857 38.5479 45.93C38.5484 46.0025 38.5635 46.0742 38.5923 46.1407C38.621 46.2072 38.6628 46.2673 38.7152 46.3172C38.7675 46.3671 38.8293 46.4059 38.8969 46.4313C38.9646 46.4567 39.0366 46.4682 39.1087 46.465C39.1819 46.4676 39.2549 46.4551 39.3232 46.4285C39.3915 46.4018 39.4537 46.3614 39.5059 46.3098C39.5582 46.2582 39.5994 46.1964 39.6272 46.1282C39.6549 46.0601 39.6685 45.987 39.6672 45.9134C39.666 45.8416 39.6505 45.7707 39.6215 45.705C39.5926 45.6394 39.5509 45.5802 39.4988 45.531C39.4468 45.4818 39.3854 45.4435 39.3184 45.4186C39.2514 45.3936 39.1801 45.3824 39.1087 45.3855Z" fill="black"/>
<path d="M43.186 47.3042C42.5073 47.2815 41.8407 47.4883 41.2929 47.8914L41.636 48.5144C42.0485 48.1904 42.5583 48.0168 43.0818 48.0222C43.9006 48.0222 44.3052 48.4288 44.3052 49.1278V49.2918H42.9966C41.636 49.2918 41.1627 49.8981 41.1627 50.6328C41.1627 51.4293 41.8182 51.9809 42.8499 51.9809C43.5598 51.9809 44.071 51.7431 44.3478 51.3247V51.9286H45.1311V49.1634C45.1406 47.9105 44.4354 47.3042 43.186 47.3042ZM44.3147 50.5282C44.2074 50.7853 44.0225 51.0021 43.786 51.148C43.5495 51.2939 43.2734 51.3615 42.9966 51.3413C42.3696 51.3413 41.9909 51.056 41.9909 50.5971C41.9909 50.2096 42.2276 49.8838 43.0392 49.8838H44.3147V50.5282Z" fill="black"/>
<path d="M47.9257 45.5164H47.0999V51.9311H47.9257V45.5164Z" fill="black"/>
<path d="M55.5336 46.5792C55.8505 46.5706 56.1657 46.6298 56.4582 46.7527C56.7507 46.8757 57.0138 47.0597 57.2302 47.2925L57.7887 46.748C57.4978 46.4336 57.1427 46.1858 56.7479 46.0217C56.353 45.8576 55.9275 45.7809 55.5004 45.797C53.6665 45.797 52.3082 47.1023 52.3082 48.8879C52.3082 50.6734 53.6665 51.9787 55.491 51.9787C55.9194 51.9946 56.3462 51.9179 56.7426 51.7539C57.139 51.5898 57.4957 51.3422 57.7887 51.0277L57.2302 50.4808C57.015 50.7161 56.7524 50.9027 56.4599 51.0282C56.1673 51.1536 55.8516 51.215 55.5336 51.2084C55.2239 51.2207 54.915 51.1694 54.6258 51.0576C54.3366 50.9458 54.0732 50.7759 53.8516 50.5582C53.6301 50.3405 53.4551 50.0796 53.3374 49.7916C53.2197 49.5036 53.1618 49.1944 53.1672 48.8831C53.1644 48.5735 53.2242 48.2665 53.3431 47.9809C53.462 47.6952 53.6374 47.4368 53.8587 47.2213C54.08 47.0059 54.3426 46.8379 54.6305 46.7275C54.9184 46.6171 55.2257 46.5667 55.5336 46.5792Z" fill="black"/>
<path d="M60.1195 48.1174V47.347H59.3291V51.9286H60.155V49.6462C60.155 48.6452 60.7063 48.1007 61.5913 48.1007C61.6544 48.0973 61.7176 48.0973 61.7806 48.1007V47.2971C60.9808 47.3043 60.4129 47.5801 60.1195 48.1174Z" fill="black"/>
<path d="M65.0509 47.3042C64.7453 47.2964 64.4414 47.3518 64.1579 47.4669C63.8745 47.5819 63.6175 47.7542 63.403 47.9731C63.1885 48.192 63.021 48.4528 62.9109 48.7393C62.8007 49.0258 62.7503 49.332 62.7627 49.639C62.7627 51.0037 63.7424 51.9809 65.2142 51.9809C65.5498 51.9973 65.8848 51.9394 66.1956 51.8112C66.5064 51.683 66.7854 51.4877 67.0127 51.2391L66.5559 50.7017C66.3895 50.8841 66.1857 51.0281 65.9586 51.1237C65.7315 51.2194 65.4864 51.2644 65.2403 51.2557C64.3363 51.2557 63.6903 50.7184 63.5838 49.9148H67.2824C67.2931 49.8319 67.2994 49.7486 67.3013 49.6651C67.3061 48.2552 66.3666 47.3042 65.0509 47.3042ZM63.5886 49.318C63.6176 48.9523 63.7857 48.6118 64.058 48.3674C64.3304 48.123 64.686 47.9934 65.0509 48.0056C65.4159 47.9934 65.7715 48.123 66.0438 48.3674C66.3162 48.6118 66.4844 48.9523 66.5134 49.318H63.5886Z" fill="black"/>
<path d="M70.4155 47.3042C69.7369 47.2815 69.0703 47.4883 68.5224 47.8914L68.8679 48.5144C69.2795 48.1904 69.7886 48.0168 70.3114 48.0222C71.1302 48.0222 71.5348 48.4288 71.5348 49.1278V49.2918H70.2262C68.8679 49.2918 68.3947 49.8981 68.3947 50.6328C68.3947 51.4293 69.0478 51.9809 70.0795 51.9809C70.7894 51.9809 71.3029 51.7431 71.5774 51.3247V51.9286H72.3607V49.1634C72.3654 47.9105 71.6602 47.3042 70.4155 47.3042ZM71.5443 50.5282C71.4373 50.7855 71.2524 51.0025 71.0159 51.1485C70.7793 51.2944 70.503 51.3619 70.2262 51.3413C69.5991 51.3413 69.2205 51.056 69.2205 50.5971C69.2205 50.2096 69.4572 49.8838 70.2712 49.8838H71.5443V50.5282Z" fill="black"/>
<path d="M75.9883 51.2844C75.5316 51.2844 75.2784 51.0062 75.2784 50.5141V48.0319H76.587V47.3495H75.2784V46.3462H74.4384V47.3495H73.6646V48.0319H74.4384V50.5498C74.4384 51.4746 74.9637 51.9763 75.8842 51.9763C76.2436 51.9888 76.5964 51.8763 76.8828 51.6577L76.6225 51.0609C76.4418 51.2043 76.2186 51.2829 75.9883 51.2844Z" fill="black"/>
<path d="M80.1176 47.3042C78.7498 47.3042 77.7512 48.2719 77.7512 49.639C77.7432 49.9518 77.7992 50.2629 77.9157 50.553C78.0323 50.8432 78.2069 51.1062 78.4287 51.3258C78.6506 51.5453 78.915 51.7168 79.2055 51.8295C79.496 51.9422 79.8064 51.9937 80.1176 51.9809C80.4289 51.9944 80.7397 51.9433 81.0305 51.8309C81.3213 51.7185 81.586 51.547 81.808 51.3273C82.03 51.1076 82.2046 50.8443 82.3209 50.5539C82.4372 50.2634 82.4927 49.952 82.4839 49.639C82.4839 48.2719 81.4853 47.3042 80.1176 47.3042ZM80.1176 51.2557C79.2397 51.2557 78.5771 50.6162 78.5771 49.639C78.5771 48.6618 79.2397 48.0294 80.1176 48.0294C80.9955 48.0294 81.6486 48.6618 81.6486 49.639C81.6486 50.6162 80.9955 51.2557 80.1176 51.2557Z" fill="black"/>
<path d="M84.8502 48.1174V47.347H84.0598V51.9286H84.8857V49.6462C84.8857 48.6452 85.4347 48.1007 86.3221 48.1007C86.3851 48.0974 86.4483 48.0974 86.5114 48.1007V47.2971C85.7116 47.3043 85.1436 47.5801 84.8502 48.1174Z" fill="black"/>
<path d="M88.3784 48.6451C88.3784 48.2814 88.731 48.0127 89.4527 48.0127C89.918 48.0019 90.3763 48.1284 90.7708 48.3765L91.1234 47.7203C90.6172 47.4378 90.0459 47.2943 89.4669 47.3042C88.298 47.3042 87.5739 47.8582 87.5739 48.6784C87.5739 50.502 90.4561 49.6128 90.4561 50.6423C90.4561 51.0299 90.1366 51.2629 89.3699 51.2629C88.8021 51.2639 88.2462 51.0986 87.7703 50.7873L87.4271 51.4459C87.8057 51.7479 88.5535 51.9809 89.3202 51.9809C90.5341 51.9809 91.2914 51.4531 91.2914 50.6233C91.2701 48.8425 88.3784 49.7246 88.3784 48.6451Z" fill="black"/>
<path d="M97.018 45.8801H96.1566V51.9311H100.279V51.1797H97.018V45.8801Z" fill="black"/>
<path d="M103.265 47.3042C102.587 47.2815 101.92 47.4883 101.372 47.8914L101.715 48.5144C102.128 48.1904 102.637 48.0168 103.161 48.0222C103.98 48.0222 104.382 48.4288 104.382 49.1278V49.2918H103.076C101.715 49.2918 101.242 49.8981 101.242 50.6328C101.242 51.4293 101.897 51.9809 102.929 51.9809C103.639 51.9809 104.15 51.7431 104.427 51.3247V51.9286H105.21V49.1634C105.22 47.9105 104.512 47.3042 103.265 47.3042ZM104.392 50.5282C104.285 50.7853 104.101 51.0023 103.864 51.1482C103.628 51.2941 103.352 51.3617 103.076 51.3413C102.449 51.3413 102.07 51.056 102.07 50.5971C102.07 50.2096 102.307 49.8838 103.118 49.8838H104.392V50.5282Z" fill="black"/>
<path d="M109.598 47.3042C109.294 47.293 108.992 47.3536 108.715 47.4812C108.439 47.6088 108.197 47.7998 108.007 48.0389V45.5139H107.182V51.9334H107.972V51.2082C108.16 51.4607 108.406 51.6635 108.689 51.799C108.972 51.9344 109.284 51.9985 109.598 51.9857C110.932 51.9857 111.905 51.0347 111.905 49.6438C111.905 48.2529 110.932 47.3042 109.598 47.3042ZM109.529 51.2558C108.66 51.2558 107.998 50.6162 107.998 49.639C107.998 48.6618 108.66 48.0294 109.529 48.0294C110.397 48.0294 111.069 48.6618 111.069 49.639C111.069 50.6162 110.407 51.2558 109.529 51.2558Z" fill="black"/>
<path d="M115.345 47.3042C115.04 47.2964 114.736 47.3518 114.452 47.4669C114.169 47.5819 113.912 47.7542 113.697 47.9731C113.483 48.192 113.315 48.4528 113.205 48.7393C113.095 49.0258 113.045 49.332 113.057 49.639C113.057 51.0037 114.039 51.9809 115.511 51.9809C115.847 51.997 116.182 51.9389 116.492 51.8107C116.803 51.6825 117.082 51.4874 117.309 51.2391L116.853 50.7017C116.686 50.8842 116.482 51.0282 116.254 51.1238C116.027 51.2194 115.781 51.2644 115.535 51.2557C114.633 51.2557 113.987 50.7184 113.878 49.9148H117.579C117.589 49.8319 117.595 49.7486 117.596 49.6651C117.601 48.2552 116.663 47.3042 115.345 47.3042ZM113.883 49.318C113.912 48.9523 114.08 48.6118 114.353 48.3674C114.625 48.123 114.98 47.9934 115.345 48.0056C115.711 47.9928 116.067 48.1221 116.34 48.3666C116.613 48.611 116.781 48.9518 116.81 49.318H113.883Z" fill="black"/>
<path d="M120 45.5164H119.174V51.9311H120V45.5164Z" fill="black"/>
</g>
<defs>
<clipPath id="clip0_547_1152">
<rect width="120" height="52" fill="white"/>
</clipPath>
</defs>
</svg>
