<svg width="177" height="77" viewBox="0 0 177 77" fill="none" xmlns="http://www.w3.org/2000/svg">
<g clip-path="url(#clip0_547_714)">
<path d="M14.1848 53.7604H23.6088C37.2212 53.7604 48.6487 51.296 57.6399 46.4762C64.118 51.3171 74.3518 53.7604 88.1562 53.7604C116.327 53.7604 159.796 37.7028 177.003 24.4088L173.956 20.3953C157.461 33.14 114.62 48.7083 88.1562 48.7083C76.7217 48.7083 67.8911 46.9128 62.2158 43.4767C69.8422 37.3402 73.4303 27.9858 73.001 20.9445C72.7113 16.1811 70.5578 12.6464 67.0953 11.2487C65.6829 10.6638 64.1508 10.4339 62.6307 10.5786C61.1107 10.7234 59.6484 11.2384 58.3694 12.0795C53.7935 14.9207 50.4393 21.3987 49.8215 28.5808C49.3468 34.1047 50.6871 38.8717 53.811 42.7725C47.2351 45.9904 39.2457 47.9056 29.9822 48.4971C30.767 47.5286 31.4272 46.464 31.9473 45.3285C33.0484 43.014 33.6141 40.4776 33.6017 37.9105C33.6017 31.5475 30.4604 27.5774 24.1777 26.0002C29.3574 23.1438 31.9473 19 31.9473 13.5688C31.9473 9.9965 30.9002 6.94527 28.806 4.4151C27.548 2.85329 25.8874 1.67164 24.0067 1.00009C22.073 0.32647 19.553 -0.00917081 16.4466 -0.00682371H6.57235L0 53.7604H14.1848ZM54.8022 29.0279C55.2734 23.5568 57.8144 18.3639 60.9837 16.3959C61.7399 15.896 62.6207 15.6214 63.5247 15.6037C64.1119 15.6096 64.6924 15.7291 65.2349 15.9558C67.4129 16.8359 67.9016 19.663 67.9993 21.2684C68.3484 27.0528 65.029 35.2137 58.2019 40.206C55.5632 37.2451 54.4218 33.4851 54.8022 29.0315V29.0279ZM13.5356 7.41118H16.2546C21.4087 7.41118 23.987 9.59398 23.9893 13.9596C23.9893 20.3202 20.6059 23.5005 13.8393 23.5005H11.595L13.5356 7.41118ZM10.8062 29.8729H15.5565C17.1038 29.8497 18.6491 29.9901 20.1673 30.2918C21.2965 30.5005 22.3679 30.952 23.3086 31.6156C24.105 32.2024 24.7209 33.0042 25.0853 33.9287C25.4903 35.0135 25.6835 36.1672 25.6542 37.3261C25.6542 40.8303 24.5268 43.337 22.272 44.8462C20.7991 45.846 18.0836 46.346 14.1255 46.346H8.80968L10.8062 29.8729Z" fill="white"/>
<path d="M0.0523682 69.0505H3.09597V76.898H4.3525V69.0505H7.39959V67.938H0.0523682V69.0505Z" fill="white"/>
<path d="M12.8341 70.0466C12.387 70.0214 11.9402 70.1008 11.5285 70.2785C11.1168 70.4562 10.7514 70.7275 10.4607 71.0711V67.3955H9.24255V76.9012H10.4607V73.4088C10.4607 71.9371 11.2984 71.1556 12.5933 71.1556C13.7486 71.1556 14.4083 71.8069 14.4083 73.1377V76.9012H15.6264V72.9969C15.6264 71.0112 14.4711 70.0466 12.8341 70.0466Z" fill="white"/>
<path d="M21.3122 70.0466C20.8611 70.0346 20.4124 70.1162 19.9939 70.2864C19.5753 70.4566 19.1959 70.7116 18.8792 71.0358C18.5624 71.3599 18.315 71.7462 18.1523 72.1708C17.9897 72.5953 17.9152 73.0491 17.9335 73.5038C17.9335 75.5247 19.382 76.9717 21.553 76.9717C22.0479 76.9955 22.542 76.9095 23.0003 76.7197C23.4587 76.5299 23.8701 76.2409 24.2057 75.8732L23.532 75.0776C23.2864 75.3475 22.9858 75.5605 22.6508 75.7021C22.3158 75.8437 21.9544 75.9105 21.5914 75.8979C20.2581 75.8979 19.3052 75.1022 19.1481 73.9122H24.6036C24.6182 73.7895 24.6264 73.6661 24.628 73.5426C24.6315 71.4548 23.2528 70.0466 21.3122 70.0466ZM19.1551 73.0285C19.1979 72.487 19.4459 71.9829 19.8476 71.6209C20.2493 71.259 20.7738 71.0671 21.3122 71.0851C21.8505 71.0671 22.375 71.259 22.7767 71.6209C23.1784 71.9829 23.4264 72.487 23.4692 73.0285H19.1551Z" fill="white"/>
<path d="M32.8095 70.3422C32.8095 69.5607 33.4552 68.934 34.9665 68.934C35.8328 68.9393 36.6799 69.1919 37.4098 69.6628L37.8287 68.6382C36.9723 68.1026 35.981 67.8275 34.9735 67.8461C32.6385 67.8461 31.5704 69.022 31.5704 70.4056C31.5704 73.7361 36.9526 72.3525 36.9526 74.5424C36.9526 75.3239 36.2929 75.9225 34.7571 75.9225C33.69 75.9331 32.6528 75.5669 31.8252 74.8874L31.354 75.8873C32.0521 76.5527 33.3994 77.0139 34.7571 77.0139C37.1061 77.0139 38.1951 75.8344 38.1951 74.4649C38.1881 71.159 32.8095 72.5286 32.8095 70.3422Z" fill="white"/>
<path d="M43.3817 70.0469C41.3608 70.0469 39.8914 71.4798 39.8914 73.5041C39.8914 75.5285 41.3748 76.972 43.3817 76.972C43.8409 76.992 44.2993 76.9164 44.7283 76.7499C45.1572 76.5834 45.5476 76.3295 45.8751 76.0042C46.2025 75.6789 46.46 75.289 46.6316 74.8589C46.8031 74.4287 46.885 73.9676 46.8721 73.5041C46.8721 71.4798 45.3992 70.0469 43.3817 70.0469ZM43.3817 75.8982C42.0868 75.8982 41.1095 74.9511 41.1095 73.5041C41.1095 72.0572 42.0868 71.1207 43.3817 71.1207C44.6767 71.1207 45.64 72.0572 45.64 73.5041C45.64 74.9511 44.6767 75.8982 43.3817 75.8982Z" fill="white"/>
<path d="M52.1111 71.1207C52.4736 71.1096 52.8327 71.1936 53.1533 71.3646C53.4739 71.5355 53.745 71.7875 53.9401 72.0959L54.865 71.4939C54.3345 70.5468 53.3328 70.0469 52.1251 70.0469C50.0553 70.0469 48.5719 71.4798 48.5719 73.5041C48.5719 75.5285 50.0553 76.972 52.1251 76.972C53.3328 76.972 54.3345 76.4615 54.865 75.5144L53.9401 74.923C53.745 75.2313 53.4739 75.4833 53.1533 75.6543C52.8327 75.8252 52.4736 75.9093 52.1111 75.8982C50.7918 75.8982 49.804 74.9758 49.804 73.5041C49.7859 73.1912 49.8326 72.8778 49.9414 72.5841C50.0502 72.2904 50.2186 72.0228 50.4357 71.7984C50.6529 71.5741 50.914 71.398 51.2025 71.2812C51.491 71.1645 51.8005 71.1098 52.1111 71.1207Z" fill="white"/>
<path d="M58.2926 70.1138H57.0745V76.8981H58.2926V70.1138Z" fill="white"/>
<path d="M57.6852 67.2054C57.5781 67.2021 57.4714 67.2205 57.3714 67.2595C57.2714 67.2985 57.1801 67.3573 57.103 67.4324C57.0259 67.5076 56.9645 67.5975 56.9224 67.697C56.8803 67.7965 56.8584 67.9035 56.858 68.0116C56.8589 68.119 56.8812 68.2251 56.9236 68.3236C56.966 68.4221 57.0276 68.511 57.1048 68.5849C57.182 68.6589 57.2732 68.7163 57.3729 68.7539C57.4727 68.7915 57.5789 68.8085 57.6852 68.8037C57.7933 68.8076 57.901 68.7892 58.0017 68.7497C58.1024 68.7102 58.1941 68.6504 58.2712 68.574C58.3483 68.4975 58.4091 68.4061 58.45 68.3052C58.4909 68.2042 58.511 68.096 58.509 67.987C58.5072 67.8806 58.4844 67.7757 58.4417 67.6785C58.3991 67.5812 58.3375 67.4936 58.2607 67.4207C58.1839 67.3478 58.0935 67.2912 57.9946 67.2543C57.8958 67.2173 57.7906 67.2007 57.6852 67.2054Z" fill="white"/>
<path d="M63.6992 70.0469C62.6982 70.0134 61.715 70.3196 60.907 70.9165L61.413 71.8389C62.0215 71.3592 62.7734 71.1022 63.5456 71.1102C64.7533 71.1102 65.3502 71.7122 65.3502 72.7473V72.9902H63.42C61.413 72.9902 60.715 73.8879 60.715 74.9758C60.715 76.1552 61.6818 76.972 63.2036 76.972C64.2507 76.972 65.0046 76.62 65.413 76.0003V76.8946H66.5683V72.8001C66.5823 70.9447 65.5422 70.0469 63.6992 70.0469ZM65.3641 74.8209C65.2059 75.2017 64.9331 75.5227 64.5843 75.7387C64.2355 75.9547 63.8282 76.0549 63.42 76.025C62.4951 76.025 61.9366 75.6025 61.9366 74.923C61.9366 74.3491 62.2856 73.8668 63.4828 73.8668H65.3641V74.8209Z" fill="white"/>
<path d="M70.6904 67.3994H69.4723V76.8981H70.6904V67.3994Z" fill="white"/>
<path d="M81.9119 68.9729C82.3794 68.9602 82.8443 69.0477 83.2757 69.2298C83.7072 69.4119 84.0953 69.6843 84.4145 70.0291L85.2382 69.2229C84.8091 68.7572 84.2854 68.3903 83.703 68.1473C83.1205 67.9043 82.4929 67.7908 81.863 67.8146C79.158 67.8146 77.1545 69.7475 77.1545 72.3915C77.1545 75.0355 79.158 76.9683 81.8491 76.9683C82.481 76.9918 83.1106 76.8783 83.6953 76.6354C84.28 76.3924 84.8061 76.0257 85.2382 75.56L84.4145 74.7503C84.0971 75.0987 83.7097 75.375 83.2782 75.5607C82.8467 75.7465 82.381 75.8375 81.9119 75.8276C81.4552 75.8459 80.9996 75.7699 80.573 75.6044C80.1464 75.4388 79.7578 75.1871 79.431 74.8648C79.1043 74.5424 78.8462 74.1562 78.6726 73.7297C78.499 73.3032 78.4136 72.8454 78.4215 72.3844C78.4174 71.926 78.5057 71.4714 78.681 71.0484C78.8563 70.6254 79.115 70.2428 79.4415 69.9237C79.7679 69.6047 80.1552 69.3559 80.5799 69.1924C81.0046 69.029 81.4577 68.9543 81.9119 68.9729Z" fill="white"/>
<path d="M88.6763 71.2508V70.1101H87.5105V76.8944H88.7286V73.5145C88.7286 72.0323 89.5419 71.2261 90.8473 71.2261C90.9403 71.221 91.0335 71.221 91.1265 71.2261V70.0361C89.9468 70.0467 89.1091 70.4551 88.6763 71.2508Z" fill="white"/>
<path d="M95.9501 70.047C95.4993 70.0355 95.051 70.1175 94.6329 70.2879C94.2148 70.4583 93.8358 70.7134 93.5194 71.0375C93.2031 71.3616 92.956 71.7477 92.7935 72.172C92.6311 72.5963 92.5567 73.0498 92.575 73.5042C92.575 75.5251 94.02 76.9721 96.191 76.9721C96.686 76.9964 97.1801 76.9106 97.6386 76.7208C98.097 76.531 98.5084 76.2417 98.8437 75.8736L98.17 75.078C97.9245 75.348 97.624 75.5612 97.2889 75.7028C96.9539 75.8445 96.5924 75.9111 96.2294 75.8983C94.8961 75.8983 93.9432 75.1026 93.7861 73.9126H99.2416C99.2573 73.79 99.2666 73.6666 99.2695 73.543C99.2765 71.4552 97.8908 70.047 95.9501 70.047ZM93.7931 73.0289C93.8359 72.4874 94.0839 71.9832 94.4856 71.6213C94.8873 71.2594 95.4118 71.0675 95.9501 71.0855C96.4885 71.0675 97.013 71.2594 97.4147 71.6213C97.8164 71.9832 98.0644 72.4874 98.1072 73.0289H93.7931Z" fill="white"/>
<path d="M103.863 70.0469C102.862 70.0134 101.879 70.3196 101.071 70.9165L101.58 71.8389C102.187 71.3592 102.938 71.1022 103.709 71.1102C104.917 71.1102 105.514 71.7122 105.514 72.7473V72.9902H103.584C101.58 72.9902 100.882 73.8879 100.882 74.9758C100.882 76.1552 101.845 76.972 103.367 76.972C104.414 76.972 105.172 76.62 105.577 76.0003V76.8946H106.732V72.8001C106.739 70.9447 105.699 70.0469 103.863 70.0469ZM105.528 74.8209C105.37 75.202 105.097 75.5233 104.748 75.7394C104.399 75.9555 103.992 76.0554 103.584 76.025C102.659 76.025 102.1 75.6025 102.1 74.923C102.1 74.3491 102.449 73.8668 103.65 73.8668H105.528V74.8209Z" fill="white"/>
<path d="M112.083 75.9403C111.409 75.9403 111.036 75.5284 111.036 74.7996V71.1241H112.966V70.1136H111.036V68.6279H109.797V70.1136H108.655V71.1241H109.797V74.8524C109.797 76.222 110.571 76.9648 111.929 76.9648C112.459 76.9833 112.98 76.8167 113.402 76.4931L113.018 75.6094C112.752 75.8217 112.422 75.9381 112.083 75.9403Z" fill="white"/>
<path d="M118.173 70.0469C116.156 70.0469 114.683 71.4798 114.683 73.5041C114.671 73.9673 114.754 74.428 114.926 74.8576C115.098 75.2873 115.355 75.6767 115.682 76.0019C116.01 76.327 116.4 76.5809 116.828 76.7477C117.257 76.9146 117.714 76.9909 118.173 76.972C118.633 76.992 119.091 76.9164 119.52 76.7499C119.949 76.5834 120.339 76.3295 120.667 76.0042C120.994 75.6789 121.252 75.289 121.423 74.8589C121.595 74.4287 121.677 73.9676 121.664 73.5041C121.664 71.4798 120.191 70.0469 118.173 70.0469ZM118.173 75.8982C116.878 75.8982 115.901 74.9511 115.901 73.5041C115.901 72.0572 116.878 71.1207 118.173 71.1207C119.468 71.1207 120.432 72.0572 120.432 73.5041C120.432 74.9511 119.468 75.8982 118.173 75.8982Z" fill="white"/>
<path d="M125.154 71.2508V70.1101H123.988V76.8944H125.206V73.5145C125.206 72.0323 126.016 71.2261 127.325 71.2261C127.418 71.2211 127.511 71.2211 127.604 71.2261V70.0361C126.425 70.0467 125.587 70.4551 125.154 71.2508Z" fill="white"/>
<path d="M130.358 72.0322C130.358 71.4936 130.878 71.0958 131.943 71.0958C132.629 71.0798 133.305 71.267 133.887 71.6344L134.407 70.6627C133.66 70.2445 132.818 70.032 131.964 70.0466C130.24 70.0466 129.172 70.8669 129.172 72.0815C129.172 74.7819 133.423 73.4652 133.423 74.9896C133.423 75.5635 132.952 75.9085 131.821 75.9085C130.983 75.91 130.163 75.6653 129.461 75.2044L128.955 76.1796C129.514 76.6267 130.616 76.9717 131.747 76.9717C133.538 76.9717 134.655 76.1901 134.655 74.9614C134.623 72.3245 130.358 73.6306 130.358 72.0322Z" fill="white"/>
<path d="M143.102 67.938H141.831V76.898H147.911V75.7855H143.102V67.938Z" fill="white"/>
<path d="M152.316 70.0469C151.315 70.0134 150.332 70.3196 149.524 70.9165L150.03 71.8389C150.638 71.3592 151.39 71.1022 152.163 71.1102C153.37 71.1102 153.964 71.7122 153.964 72.7473V72.9902H152.037C150.03 72.9902 149.332 73.8879 149.332 74.9758C149.332 76.1552 150.299 76.972 151.82 76.972C152.868 76.972 153.622 76.62 154.03 76.0003V76.8946H155.185V72.8001C155.199 70.9447 154.156 70.0469 152.316 70.0469ZM153.978 74.8209C153.82 75.2017 153.548 75.5229 153.2 75.739C152.852 75.9551 152.445 76.0552 152.037 76.025C151.112 76.025 150.554 75.6025 150.554 74.923C150.554 74.3491 150.903 73.8668 152.1 73.8668H153.978V74.8209Z" fill="white"/>
<path d="M161.656 70.0466C161.208 70.0299 160.763 70.1196 160.355 70.3086C159.948 70.4976 159.59 70.7804 159.311 71.1344V67.3955H158.093V76.9012H159.259V75.8274C159.535 76.2014 159.898 76.5016 160.316 76.7022C160.734 76.9028 161.194 76.9977 161.656 76.9787C163.625 76.9787 165.06 75.5704 165.06 73.5109C165.06 71.4513 163.625 70.0466 161.656 70.0466ZM161.555 75.8979C160.274 75.8979 159.297 74.9508 159.297 73.5038C159.297 72.0568 160.274 71.1203 161.555 71.1203C162.836 71.1203 163.827 72.0568 163.827 73.5038C163.827 74.9508 162.85 75.8979 161.555 75.8979Z" fill="white"/>
<path d="M170.134 70.047C169.684 70.0355 169.235 70.1175 168.817 70.2879C168.399 70.4583 168.02 70.7134 167.704 71.0375C167.387 71.3616 167.14 71.7477 166.978 72.172C166.815 72.5963 166.741 73.0498 166.759 73.5042C166.759 75.5251 168.208 76.9721 170.379 76.9721C170.874 76.9959 171.368 76.9099 171.826 76.7201C172.284 76.5303 172.696 76.2413 173.031 75.8736L172.358 75.078C172.112 75.3481 171.81 75.5613 171.475 75.7029C171.139 75.8445 170.777 75.9112 170.414 75.8983C169.084 75.8983 168.131 75.1026 167.97 73.9126H173.429C173.444 73.7899 173.452 73.6665 173.454 73.543C173.461 71.4552 172.079 70.047 170.134 70.047ZM167.977 73.0289C168.02 72.4874 168.268 71.9832 168.67 71.6213C169.072 71.2594 169.596 71.0675 170.134 71.0855C170.673 71.0666 171.199 71.2581 171.601 71.6201C172.004 71.9821 172.252 72.4867 172.295 73.0289H167.977Z" fill="white"/>
<path d="M177 67.3994H175.782V76.8981H177V67.3994Z" fill="white"/>
</g>
<defs>
<clipPath id="clip0_547_714">
<rect width="177" height="77" fill="white"/>
</clipPath>
</defs>
</svg>
